%FSLAX34Y34*%
%MOMM*%
%LNCOPPER_TOP*%
G71*
G01*
%ADD10C, 0.25*%
%ADD11C, 0.16*%
%ADD12C, 0.26*%
%ADD13C, 1.00*%
%ADD14C, 0.00*%
%ADD15C, 0.50*%
%ADD16C, 0.70*%
%ADD17C, 0.60*%
%ADD18C, 0.45*%
%ADD19R, 1.55X1.00*%
%ADD20R, 1.00X1.55*%
%ADD21R, 1.45X1.16*%
%ADD22R, 1.63X3.25*%
%ADD23R, 6.60X7.11*%
%ADD24R, 1.16X1.45*%
%ADD25C, 1.52*%
%ADD26C, 1.80*%
%ADD27C, 2.00*%
%ADD28C, 2.20*%
%ADD29C, 1.65*%
%ADD30C, 1.80*%
%ADD31C, 1.60*%
%ADD32R, 0.90X2.50*%
%ADD33C, 0.61*%
%ADD34C, 0.30*%
%ADD35C, 1.64*%
%ADD36R, 0.80X0.90*%
%ADD37R, 0.90X0.80*%
%ADD38R, 0.50X0.50*%
%ADD39C, 0.90*%
%LPD*%
G54D10*
X-122806Y-554851D02*
X-125026Y-554851D01*
X-126826Y-553041D01*
X-124286Y-553041D01*
G54D10*
X-123496Y-554121D02*
X-125746Y-554121D01*
G54D10*
X-125006Y-553041D02*
X-125006Y-554851D01*
G54D10*
X-96246Y-549131D02*
X-83626Y-549131D01*
G54D10*
X-81816Y-565841D02*
X-96246Y-565841D01*
G54D10*
X-88266Y-554121D02*
X-90976Y-554121D01*
G54D10*
X-88576Y-559201D02*
X-90486Y-559201D01*
G54D10*
X-85246Y-564281D02*
X-93496Y-564281D01*
G54D10*
X-94526Y-549131D02*
X-94526Y-549951D01*
G54D10*
X-94526Y-565021D02*
X-94526Y-565841D01*
G54D10*
X-89446Y-549131D02*
X-89446Y-565841D01*
G54D10*
X-84366Y-549131D02*
X-84366Y-549511D01*
G54D10*
X-84366Y-564861D02*
X-84366Y-565841D01*
G54D10*
X-108526Y-551631D02*
X-106026Y-549131D01*
X-102076Y-549131D01*
G54D10*
X-107606Y-554851D02*
X-110716Y-554851D01*
G54D10*
X-107346Y-554121D02*
X-110026Y-554121D01*
G54D10*
X-109766Y-553801D02*
X-109766Y-554851D01*
G54D10*
X-104686Y-549131D02*
X-104686Y-550571D01*
G54D10*
X-62626Y-502831D02*
X-63026Y-502951D01*
G54D10*
X-65236Y-504191D02*
X-69896Y-508851D01*
X-70616Y-508851D01*
G54D10*
X-69176Y-503271D02*
X-64936Y-499031D01*
G54D10*
X-64046Y-501051D02*
X-64046Y-503321D01*
X-69166Y-503321D01*
G54D10*
X-69456Y-508401D02*
X-70286Y-508401D01*
G54D10*
X-69126Y-503221D02*
X-69126Y-503601D01*
G54D10*
X-69126Y-505361D02*
X-69126Y-508071D01*
G54D10*
X154394Y-472841D02*
X154394Y-565841D01*
X99894Y-565841D01*
G54D10*
X102694Y-549661D02*
X102694Y-548521D01*
X107074Y-544131D01*
G54D10*
X109784Y-541421D02*
X116604Y-534601D01*
G54D10*
X134194Y-526911D02*
X140314Y-520791D01*
G54D10*
X141674Y-517511D02*
X141674Y-477921D01*
G54D10*
X154394Y-472841D02*
X144849Y-472841D01*
G54D10*
X154394Y-477921D02*
X141674Y-477921D01*
G54D10*
X154394Y-483001D02*
X141674Y-483001D01*
G54D10*
X154394Y-488081D02*
X141674Y-488081D01*
G54D10*
X154394Y-493161D02*
X141674Y-493161D01*
G54D10*
X154394Y-498241D02*
X141674Y-498241D01*
G54D10*
X154394Y-503321D02*
X141674Y-503321D01*
G54D10*
X154394Y-508401D02*
X141674Y-508401D01*
G54D10*
X154394Y-513481D02*
X141674Y-513481D01*
G54D10*
X154394Y-518561D02*
X141554Y-518561D01*
G54D10*
X154394Y-523641D02*
X137464Y-523641D01*
G54D10*
X154394Y-528721D02*
X132984Y-528721D01*
G54D10*
X154394Y-533801D02*
X134164Y-533801D01*
G54D10*
X154394Y-538881D02*
X132104Y-538881D01*
G54D10*
X118574Y-538881D02*
X112324Y-538881D01*
G54D10*
X154394Y-543961D02*
X121894Y-543961D01*
G54D10*
X154394Y-549041D02*
X123384Y-549041D01*
G54D10*
X105694Y-549041D02*
X102694Y-549041D01*
G54D10*
X154394Y-554121D02*
X121664Y-554121D01*
G54D10*
X107414Y-554121D02*
X106344Y-554121D01*
G54D10*
X154394Y-559201D02*
X106654Y-559201D01*
G54D10*
X154394Y-564281D02*
X103314Y-564281D01*
G54D10*
X103594Y-547611D02*
X103594Y-550301D01*
G54D10*
X103594Y-564071D02*
X103594Y-565841D01*
G54D10*
X108674Y-555511D02*
X108674Y-565841D01*
G54D10*
X113754Y-537451D02*
X113754Y-540071D01*
G54D10*
X113754Y-557701D02*
X113754Y-565841D01*
G54D10*
X118834Y-539191D02*
X118834Y-541151D01*
G54D10*
X118834Y-556621D02*
X118834Y-565841D01*
G54D10*
X123914Y-541921D02*
X123914Y-565841D01*
G54D10*
X128994Y-541241D02*
X128994Y-565841D01*
G54D10*
X134074Y-527031D02*
X134074Y-531801D01*
G54D10*
X134074Y-534561D02*
X134074Y-565841D01*
G54D10*
X139154Y-521951D02*
X139154Y-565841D01*
G54D10*
X144198Y-472703D02*
X144234Y-565841D01*
G54D10*
X149314Y-474116D02*
X149314Y-565841D01*
G54D10*
X-102076Y-565841D02*
X-156316Y-565841D01*
X-156316Y-472841D01*
G54D10*
X-146606Y-477921D02*
X-146606Y-544481D01*
G54D10*
X-145246Y-547771D02*
X-130236Y-562781D01*
G54D10*
X-126956Y-564141D02*
X-104986Y-564141D01*
G54D10*
X-151368Y-472841D02*
X-156316Y-472841D01*
G54D10*
X-146606Y-477921D02*
X-156316Y-477921D01*
G54D10*
X-146606Y-483001D02*
X-156316Y-483001D01*
G54D10*
X-146606Y-488081D02*
X-156316Y-488081D01*
G54D10*
X-146606Y-493161D02*
X-156316Y-493161D01*
G54D10*
X-146606Y-498241D02*
X-156316Y-498241D01*
G54D10*
X-146606Y-503321D02*
X-156316Y-503321D01*
G54D10*
X-146606Y-508401D02*
X-156316Y-508401D01*
G54D10*
X-146606Y-513481D02*
X-156316Y-513481D01*
G54D10*
X-146606Y-518561D02*
X-156316Y-518561D01*
G54D10*
X-146606Y-523641D02*
X-156316Y-523641D01*
G54D10*
X-146606Y-528721D02*
X-156316Y-528721D01*
G54D10*
X-146606Y-533801D02*
X-156316Y-533801D01*
G54D10*
X-146606Y-538881D02*
X-156316Y-538881D01*
G54D10*
X-146606Y-543961D02*
X-156316Y-543961D01*
G54D10*
X-143976Y-549041D02*
X-156316Y-549041D01*
G54D10*
X-138896Y-554121D02*
X-156316Y-554121D01*
G54D10*
X-133816Y-559201D02*
X-156316Y-559201D01*
G54D10*
X-104826Y-564281D02*
X-156316Y-564281D01*
G54D10*
X-150271Y-472886D02*
X-150406Y-565841D01*
G54D10*
X-145326Y-547691D02*
X-145326Y-565841D01*
G54D10*
X-140246Y-552781D02*
X-140246Y-565841D01*
G54D10*
X-135166Y-557861D02*
X-135166Y-565841D01*
G54D10*
X-130086Y-562931D02*
X-130086Y-565841D01*
G54D10*
X-125006Y-564141D02*
X-125006Y-565841D01*
G54D10*
X-119926Y-564141D02*
X-119926Y-565841D01*
G54D10*
X-114846Y-564141D02*
X-114846Y-565841D01*
G54D10*
X-109766Y-564141D02*
X-109766Y-565841D01*
G54D10*
X-104686Y-564401D02*
X-104686Y-565841D01*
G54D10*
X-98806Y-473481D02*
X-98806Y-483481D01*
G54D10*
X-94966Y-487331D02*
X-84966Y-487331D01*
G54D10*
X-81116Y-483481D02*
X-81116Y-473481D01*
G54D10*
X-63606Y-472841D02*
X-63606Y-478561D01*
G54D10*
X-71376Y-492321D02*
X-76676Y-497631D01*
G54D10*
X-81306Y-508851D02*
X-93046Y-508851D01*
X-100306Y-501561D01*
X-100306Y-487481D01*
G54D10*
X-109606Y-492311D02*
X-109606Y-503491D01*
G54D10*
X-108246Y-506771D02*
X-98266Y-516781D01*
G54D10*
X-94976Y-518141D02*
X-67976Y-518141D01*
G54D10*
X-64686Y-516781D02*
X-59506Y-511601D01*
X-58996Y-511451D01*
G54D10*
X-57726Y-518841D02*
X-113036Y-518841D01*
X-121226Y-510651D01*
G54D10*
X-133306Y-505911D02*
X-133306Y-476401D01*
X-129746Y-472841D01*
G54D10*
X-63606Y-472841D02*
X-81166Y-472841D01*
G54D10*
X-98756Y-472841D02*
X-129746Y-472841D01*
G54D10*
X-63606Y-477921D02*
X-64076Y-477921D01*
G54D10*
X-77846Y-477921D02*
X-81116Y-477921D01*
G54D10*
X-98806Y-477921D02*
X-102076Y-477921D01*
G54D10*
X-115846Y-477921D02*
X-133306Y-477921D01*
G54D10*
X-79796Y-483001D02*
X-81116Y-483001D01*
G54D10*
X-98806Y-483001D02*
X-100126Y-483001D01*
G54D10*
X-117796Y-483001D02*
X-133306Y-483001D01*
G54D10*
X-78516Y-488081D02*
X-100306Y-488081D01*
G54D10*
X-116516Y-488081D02*
X-118976Y-488081D01*
G54D10*
X-126946Y-488081D02*
X-133306Y-488081D01*
G54D10*
X-72216Y-493161D02*
X-100306Y-493161D01*
G54D10*
X-109606Y-493161D02*
X-114576Y-493161D01*
G54D10*
X-131346Y-493161D02*
X-133306Y-493161D01*
G54D10*
X-78896Y-498241D02*
X-100306Y-498241D01*
G54D10*
X-109606Y-498241D02*
X-114406Y-498241D01*
G54D10*
X-131516Y-498241D02*
X-133306Y-498241D01*
G54D10*
X-82756Y-503321D02*
X-98556Y-503321D01*
G54D10*
X-109606Y-503321D02*
X-118016Y-503321D01*
G54D10*
X-127906Y-503321D02*
X-133306Y-503321D01*
G54D10*
X-81636Y-508401D02*
X-93486Y-508401D01*
G54D10*
X-106616Y-508401D02*
X-122516Y-508401D01*
G54D10*
X-59306Y-513481D02*
X-61386Y-513481D01*
G54D10*
X-101546Y-513481D02*
X-118386Y-513481D01*
G54D10*
X-57906Y-518561D02*
X-113306Y-518561D01*
G54D10*
X-130086Y-473181D02*
X-130086Y-490731D01*
G54D10*
X-130086Y-501241D02*
X-130086Y-505061D01*
G54D10*
X-125006Y-472864D02*
X-125006Y-487381D01*
G54D10*
X-125006Y-504591D02*
X-125006Y-506241D01*
G54D10*
X-119926Y-474134D02*
X-119926Y-487681D01*
G54D10*
X-119926Y-504301D02*
X-119926Y-511951D01*
G54D10*
X-114846Y-490091D02*
X-114846Y-492471D01*
G54D10*
X-114846Y-499501D02*
X-114846Y-517031D01*
G54D10*
X-109766Y-492301D02*
X-109766Y-518841D01*
G54D10*
X-104686Y-510341D02*
X-104686Y-518841D01*
G54D10*
X-99606Y-515441D02*
X-99606Y-518841D01*
G54D10*
X-94526Y-487331D02*
X-94526Y-507361D01*
G54D10*
X-94526Y-518141D02*
X-94526Y-518841D01*
G54D10*
X-89446Y-487331D02*
X-89446Y-508851D01*
G54D10*
X-89446Y-518141D02*
X-89446Y-518841D01*
G54D10*
X-84366Y-487291D02*
X-84366Y-508851D01*
G54D10*
X-84366Y-518141D02*
X-84366Y-518841D01*
G54D10*
X-79286Y-486501D02*
X-79286Y-498441D01*
G54D10*
X-79286Y-518141D02*
X-79286Y-518841D01*
G54D10*
X-74206Y-491721D02*
X-74206Y-495151D01*
G54D10*
X-74206Y-518141D02*
X-74206Y-518841D01*
G54D10*
X-69126Y-518141D02*
X-69126Y-518841D01*
G54D10*
X-64046Y-516141D02*
X-64046Y-518841D01*
G54D10*
X-58966Y-516241D02*
X-58966Y-518841D01*
G54D10*
X-44606Y-472841D02*
X-44606Y-489491D01*
G54D10*
X-43246Y-492781D02*
X-37616Y-498401D01*
X-37616Y-498451D01*
G54D10*
X-46046Y-499831D02*
X-48266Y-499831D01*
G54D10*
X-54316Y-486491D02*
X-54316Y-472841D01*
G54D10*
X-44606Y-472841D02*
X-54316Y-472841D01*
G54D10*
X-44606Y-477921D02*
X-54316Y-477921D01*
G54D10*
X-44606Y-483001D02*
X-54316Y-483001D01*
G54D10*
X-44606Y-488081D02*
X-53686Y-488081D01*
G54D10*
X-42856Y-493161D02*
X-48256Y-493161D01*
G54D10*
X-37776Y-498241D02*
X-38026Y-498241D01*
G54D10*
X-43896Y-498241D02*
X-47786Y-498241D01*
G54D10*
X-48806Y-473841D02*
X-48806Y-492061D01*
G54D10*
X-43726Y-492221D02*
X-43726Y-498161D01*
G54D10*
X-38646Y-497381D02*
X-38646Y-497991D01*
G54D10*
X13384Y-472841D02*
X13384Y-483381D01*
G54D10*
X14744Y-486661D02*
X39924Y-511851D01*
G54D10*
X39924Y-515921D02*
X37014Y-518841D01*
X-43196Y-518841D01*
G54D10*
X-42926Y-518421D02*
X-37236Y-518421D01*
G54D10*
X-33946Y-517051D02*
X-29676Y-512761D01*
G54D10*
X-28326Y-509481D02*
X-28326Y-496481D01*
G54D10*
X-29686Y-493191D02*
X-35306Y-487571D01*
X-35306Y-472841D01*
G54D10*
X-606Y-472841D02*
X-606Y-493561D01*
X-4646Y-497601D01*
G54D10*
X1924Y-504171D02*
X7324Y-498771D01*
G54D10*
X8684Y-495481D02*
X8684Y-472841D01*
G54D10*
X13384Y-472841D02*
X8684Y-472841D01*
G54D10*
X-606Y-472841D02*
X-35306Y-472841D01*
G54D10*
X13384Y-477921D02*
X8684Y-477921D01*
G54D10*
X-606Y-477921D02*
X-35306Y-477921D01*
G54D10*
X13384Y-483001D02*
X8684Y-483001D01*
G54D10*
X-606Y-483001D02*
X-35306Y-483001D01*
G54D10*
X16164Y-488081D02*
X8684Y-488081D01*
G54D10*
X-606Y-488081D02*
X-34786Y-488081D01*
G54D10*
X21244Y-493161D02*
X8684Y-493161D01*
G54D10*
X-606Y-493161D02*
X-29706Y-493161D01*
G54D10*
X26324Y-498241D02*
X7774Y-498241D01*
G54D10*
X-7896Y-498241D02*
X-28326Y-498241D01*
G54D10*
X31404Y-503321D02*
X2774Y-503321D01*
G54D10*
X-11756Y-503321D02*
X-28326Y-503321D01*
G54D10*
X36484Y-508401D02*
X714Y-508401D01*
G54D10*
X-10636Y-508401D02*
X-28326Y-508401D01*
G54D10*
X39704Y-513481D02*
X-30396Y-513481D01*
G54D10*
X37284Y-518561D02*
X-43016Y-518561D01*
G54D10*
X-38646Y-518421D02*
X-38646Y-518841D01*
G54D10*
X-33566Y-516671D02*
X-33566Y-518841D01*
G54D10*
X-28486Y-473841D02*
X-28486Y-495271D01*
G54D10*
X-28486Y-510681D02*
X-28486Y-518841D01*
G54D10*
X-23406Y-473841D02*
X-23406Y-518841D01*
G54D10*
X-18326Y-473841D02*
X-18326Y-518841D01*
G54D10*
X-13246Y-473841D02*
X-13246Y-518841D01*
G54D10*
X-8166Y-473841D02*
X-8166Y-498381D01*
G54D10*
X-8166Y-510591D02*
X-8166Y-518841D01*
G54D10*
X-3086Y-511121D02*
X-3086Y-518841D01*
G54D10*
X1994Y-504101D02*
X1994Y-518841D01*
G54D10*
X7074Y-499021D02*
X7074Y-518841D01*
G54D10*
X17234Y-489161D02*
X17234Y-518841D01*
G54D10*
X22314Y-494241D02*
X22314Y-518841D01*
G54D10*
X27394Y-499321D02*
X27394Y-518841D01*
G54D10*
X32474Y-504401D02*
X32474Y-518841D01*
G54D10*
X37554Y-509481D02*
X37554Y-518291D01*
G54D10*
X102394Y-472841D02*
X102394Y-475951D01*
G54D10*
X111684Y-475951D02*
X111684Y-472841D01*
G54D10*
X116894Y-472841D02*
X116894Y-488961D01*
G54D10*
X126184Y-488961D02*
X126184Y-472841D01*
G54D10*
X132384Y-472841D02*
X132384Y-506381D01*
G54D10*
X117714Y-520341D02*
X94754Y-543301D01*
G54D10*
X93394Y-546591D02*
X93394Y-549651D01*
G54D10*
X95308Y-565853D02*
X81754Y-565841D01*
G54D10*
X75924Y-565841D02*
X49754Y-565841D01*
G54D10*
X51434Y-564761D02*
X59204Y-557001D01*
G54D10*
X52624Y-550421D02*
X46224Y-556831D01*
X-59566Y-556831D01*
G54D10*
X-71346Y-544861D02*
X-72956Y-542131D01*
G54D10*
X-76956Y-539841D02*
X-107956Y-539831D01*
G54D10*
X-111236Y-541191D02*
X-111396Y-541351D01*
G54D10*
X-124296Y-543751D02*
X-128126Y-543751D01*
X-130586Y-541281D01*
G54D10*
X-133306Y-526621D02*
X-133306Y-521861D01*
G54D10*
X-124096Y-520921D02*
X-118246Y-526771D01*
G54D10*
X-114966Y-528131D02*
X-59926Y-528131D01*
G54D10*
X-45396Y-528131D02*
X38934Y-528131D01*
G54D10*
X42224Y-526771D02*
X46504Y-522501D01*
G54D10*
X46504Y-505271D02*
X22684Y-481451D01*
X22684Y-472841D01*
G54D10*
X79194Y-473481D02*
X79194Y-483481D01*
G54D10*
X83034Y-487331D02*
X93034Y-487331D01*
G54D10*
X96884Y-483481D02*
X96884Y-473481D01*
G54D10*
X132384Y-472841D02*
X126184Y-472841D01*
G54D10*
X116894Y-472841D02*
X111684Y-472841D01*
G54D10*
X102394Y-472841D02*
X96834Y-472841D01*
G54D10*
X79244Y-472841D02*
X22684Y-472841D01*
G54D10*
X132384Y-477921D02*
X126184Y-477921D01*
G54D10*
X116894Y-477921D02*
X113924Y-477921D01*
G54D10*
X100154Y-477921D02*
X96884Y-477921D01*
G54D10*
X79194Y-477921D02*
X75924Y-477921D01*
G54D10*
X62154Y-477921D02*
X22684Y-477921D01*
G54D10*
X132384Y-483001D02*
X126184Y-483001D01*
G54D10*
X116894Y-483001D02*
X115874Y-483001D01*
G54D10*
X98204Y-483001D02*
X96884Y-483001D01*
G54D10*
X79194Y-483001D02*
X77874Y-483001D01*
G54D10*
X60204Y-483001D02*
X24234Y-483001D01*
G54D10*
X132384Y-488081D02*
X126184Y-488081D01*
G54D10*
X116894Y-488081D02*
X114594Y-488081D01*
G54D10*
X99484Y-488081D02*
X76594Y-488081D01*
G54D10*
X61484Y-488081D02*
X59024Y-488081D01*
G54D10*
X51054Y-488081D02*
X29314Y-488081D01*
G54D10*
X132384Y-493161D02*
X129744Y-493161D01*
G54D10*
X113334Y-493161D02*
X63424Y-493161D01*
G54D10*
X46654Y-493161D02*
X34394Y-493161D01*
G54D10*
X132384Y-498241D02*
X130214Y-498241D01*
G54D10*
X112864Y-498241D02*
X63594Y-498241D01*
G54D10*
X46484Y-498241D02*
X39474Y-498241D01*
G54D10*
X132384Y-503321D02*
X127154Y-503321D01*
G54D10*
X115924Y-503321D02*
X59984Y-503321D01*
G54D10*
X50094Y-503321D02*
X44554Y-503321D01*
G54D10*
X120514Y-508401D02*
X55484Y-508401D01*
G54D10*
X118694Y-513481D02*
X57374Y-513481D01*
G54D10*
X120094Y-518561D02*
X56044Y-518561D01*
G54D10*
X114414Y-523641D02*
X45354Y-523641D01*
G54D10*
X-121376Y-523641D02*
X-133306Y-523641D01*
G54D10*
X109334Y-528721D02*
X58434Y-528721D01*
G54D10*
X43044Y-528721D02*
X-45016Y-528721D01*
G54D10*
X-60306Y-528721D02*
X-119566Y-528721D01*
G54D10*
X104254Y-533801D02*
X59554Y-533801D01*
G54D10*
X41924Y-533801D02*
X-43836Y-533801D01*
G54D10*
X-61486Y-533801D02*
X-118446Y-533801D01*
G54D10*
X99174Y-538881D02*
X57424Y-538881D01*
G54D10*
X44054Y-538881D02*
X-45896Y-538881D01*
G54D10*
X-59426Y-538881D02*
X-120576Y-538881D01*
G54D10*
X94204Y-543961D02*
X68904Y-543961D01*
G54D10*
X53574Y-543961D02*
X-56106Y-543961D01*
G54D10*
X-70816Y-543961D02*
X-71876Y-543961D01*
G54D10*
X93394Y-549041D02*
X81494Y-549041D01*
G54D10*
X76184Y-549041D02*
X70064Y-549041D01*
G54D10*
X52414Y-549041D02*
X-54616Y-549041D01*
G54D10*
X89734Y-554121D02*
X87024Y-554121D01*
G54D10*
X70654Y-554121D02*
X67974Y-554121D01*
G54D10*
X48924Y-554121D02*
X-56336Y-554121D01*
G54D10*
X89424Y-559201D02*
X87514Y-559201D01*
G54D10*
X70164Y-559201D02*
X56994Y-559201D01*
G54D10*
X92754Y-564281D02*
X84494Y-564281D01*
G54D10*
X73174Y-564281D02*
X51914Y-564281D01*
G54D10*
X-130086Y-522711D02*
X-130086Y-524701D01*
G54D10*
X-130086Y-541471D02*
X-130086Y-541791D01*
G54D10*
X-125006Y-521531D02*
X-125006Y-524531D01*
G54D10*
X-125006Y-541641D02*
X-125006Y-543751D01*
G54D10*
X-119926Y-525101D02*
X-119926Y-528141D01*
G54D10*
X-119926Y-538031D02*
X-119926Y-540121D01*
G54D10*
X-114846Y-528131D02*
X-114846Y-539751D01*
G54D10*
X-109766Y-528131D02*
X-109766Y-540201D01*
G54D10*
X-104686Y-528131D02*
X-104686Y-539831D01*
G54D10*
X-99606Y-528131D02*
X-99606Y-539831D01*
G54D10*
X-94526Y-528131D02*
X-94526Y-539831D01*
G54D10*
X-89446Y-528131D02*
X-89446Y-539841D01*
G54D10*
X-84366Y-528131D02*
X-84366Y-539841D01*
G54D10*
X-79286Y-528131D02*
X-79286Y-539841D01*
G54D10*
X-74206Y-528131D02*
X-74206Y-540741D01*
G54D10*
X-69126Y-528131D02*
X-69126Y-542081D01*
G54D10*
X-64046Y-528131D02*
X-64046Y-540051D01*
G54D10*
X-58966Y-539401D02*
X-58966Y-541271D01*
G54D10*
X-58966Y-556501D02*
X-58966Y-556831D01*
G54D10*
X-53886Y-541951D02*
X-53886Y-556831D01*
G54D10*
X-48806Y-541151D02*
X-48806Y-556831D01*
G54D10*
X-43726Y-528131D02*
X-43726Y-556831D01*
G54D10*
X-38646Y-528131D02*
X-38646Y-556831D01*
G54D10*
X-33566Y-528131D02*
X-33566Y-556831D01*
G54D10*
X-28486Y-528131D02*
X-28486Y-556831D01*
G54D10*
X-23406Y-528131D02*
X-23406Y-556831D01*
G54D10*
X-18326Y-528131D02*
X-18326Y-556831D01*
G54D10*
X-13246Y-528131D02*
X-13246Y-556831D01*
G54D10*
X-8166Y-528131D02*
X-8166Y-556831D01*
G54D10*
X-3086Y-528131D02*
X-3086Y-556831D01*
G54D10*
X1994Y-528131D02*
X1994Y-556831D01*
G54D10*
X7074Y-528131D02*
X7074Y-556831D01*
G54D10*
X12154Y-528131D02*
X12154Y-556831D01*
G54D10*
X17234Y-528131D02*
X17234Y-556831D01*
G54D10*
X22314Y-528131D02*
X22314Y-556831D01*
G54D10*
X27394Y-473841D02*
X27394Y-486171D01*
G54D10*
X27394Y-528131D02*
X27394Y-556831D01*
G54D10*
X32474Y-473841D02*
X32474Y-491251D01*
G54D10*
X32474Y-528131D02*
X32474Y-556831D01*
G54D10*
X37554Y-473841D02*
X37554Y-496331D01*
G54D10*
X37554Y-528131D02*
X37554Y-556831D01*
G54D10*
X42634Y-473841D02*
X42634Y-501411D01*
G54D10*
X42634Y-526361D02*
X42634Y-529521D01*
G54D10*
X42634Y-536641D02*
X42634Y-556831D01*
G54D10*
X47714Y-473841D02*
X47714Y-491021D01*
G54D10*
X47714Y-500961D02*
X47714Y-505071D01*
G54D10*
X47714Y-522691D02*
X47714Y-524771D01*
G54D10*
X47714Y-541401D02*
X47714Y-555331D01*
G54D10*
X52794Y-473821D02*
X52794Y-487431D01*
G54D10*
X52794Y-504551D02*
X52794Y-506131D01*
G54D10*
X52794Y-521641D02*
X52794Y-524481D01*
G54D10*
X52794Y-541691D02*
X52794Y-545731D01*
G54D10*
X52794Y-563401D02*
X52794Y-565841D01*
G54D10*
X57874Y-473148D02*
X57874Y-487611D01*
G54D10*
X57874Y-504371D02*
X57874Y-527861D01*
G54D10*
X57874Y-538311D02*
X57874Y-540201D01*
G54D10*
X57874Y-558321D02*
X57874Y-565841D01*
G54D10*
X62954Y-472788D02*
X62954Y-477061D01*
G54D10*
X62954Y-489911D02*
X62954Y-492041D01*
G54D10*
X62954Y-499931D02*
X62954Y-539711D01*
G54D10*
X62954Y-557071D02*
X62954Y-565841D01*
G54D10*
X68034Y-492271D02*
X68034Y-542721D01*
G54D10*
X68034Y-554051D02*
X68034Y-565841D01*
G54D10*
X73114Y-491341D02*
X73114Y-550731D01*
G54D10*
X73114Y-564231D02*
X73114Y-565841D01*
G54D10*
X78234Y-473095D02*
X78194Y-548661D01*
G54D10*
X83274Y-487331D02*
X83274Y-549831D01*
G54D10*
X83274Y-565141D02*
X83274Y-565841D01*
G54D10*
X88354Y-487331D02*
X88354Y-565841D01*
G54D10*
X93434Y-487311D02*
X93434Y-545941D01*
G54D10*
X93434Y-564741D02*
X93434Y-565841D01*
G54D10*
X98514Y-473468D02*
X98514Y-481091D01*
G54D10*
X98514Y-485871D02*
X98514Y-539541D01*
G54D10*
X103594Y-491641D02*
X103594Y-534461D01*
G54D10*
X108674Y-492181D02*
X108674Y-529381D01*
G54D10*
X113754Y-489241D02*
X113754Y-492271D01*
G54D10*
X113754Y-500701D02*
X113754Y-524301D01*
G54D10*
X118834Y-504911D02*
X118834Y-512171D01*
G54D10*
X118834Y-515401D02*
X118834Y-519511D01*
G54D10*
X123914Y-505011D02*
X123914Y-505711D01*
G54D10*
X128994Y-501241D02*
X128994Y-505061D01*
G54D11*
X-140966Y-452491D02*
X-141966Y-453491D01*
X-141966Y-544481D01*
X-126956Y-559491D01*
X-101956Y-559491D01*
X-99956Y-557491D01*
X-99166Y-557491D01*
G54D11*
X140024Y-452481D02*
X137034Y-452481D01*
X137034Y-517511D01*
X130904Y-523631D01*
X121004Y-523631D01*
X98044Y-546591D01*
X98044Y-557181D01*
G54D11*
X-108966Y-483501D02*
X-104956Y-487481D01*
X-104956Y-503491D01*
X-94976Y-513491D01*
X-67976Y-513491D01*
X-61956Y-507471D01*
X-61966Y-507481D01*
X-51976Y-504481D01*
X-40976Y-504481D01*
G54D11*
X-4966Y-504481D02*
X4034Y-495481D01*
X4034Y-468666D01*
G54D11*
X-39956Y-452481D02*
X-39956Y-489491D01*
X-32976Y-496481D01*
X-32976Y-509481D01*
X-37236Y-513771D01*
X-50476Y-513771D01*
G54D11*
X-65966Y-452491D02*
X-58966Y-459491D01*
X-58966Y-486491D01*
X-75966Y-503481D01*
X-75966Y-504481D01*
G54D11*
X18034Y-452481D02*
X18034Y-483381D01*
X48544Y-513881D01*
X38934Y-523481D01*
X-114966Y-523481D01*
X-124566Y-513881D01*
X-129466Y-513881D01*
G54D11*
X115034Y-452481D02*
X121534Y-452481D01*
X121534Y-496491D01*
G54D11*
X92044Y-452481D02*
X107034Y-467471D01*
X107034Y-483481D01*
G54D12*
X-90956Y-452481D02*
X-89966Y-453471D01*
X-89966Y-478491D01*
G54D10*
G75*
G01X-124268Y-553079D02*
G03X-122799Y-554861I7502J4688D01*
G01*
G54D10*
G75*
G01X-96285Y-565859D02*
G03X-96285Y-549123I-2881J8368D01*
G01*
G54D10*
G75*
G01X-83705Y-549173D02*
G03X-81805Y-565845I3739J-8018D01*
G01*
G54D10*
G75*
G01X-102046Y-549127D02*
G03X-107625Y-554905I2880J-8364D01*
G01*
G54D10*
G75*
G01X-110729Y-554864D02*
G03X-108559Y-551707I-6037J6473D01*
G01*
G54D10*
G75*
G01X-64925Y-499077D02*
G03X-62611Y-502854I8459J2586D01*
G01*
G54D10*
G75*
G01X-63001Y-502953D02*
G03X-65242Y-504195I1045J-4528D01*
G01*
G54D10*
G75*
G01X-70608Y-508830D02*
G03X-69072Y-504491I-5358J4339D01*
G01*
G54D10*
G75*
G01X-69066Y-504491D02*
G03X-69171Y-503293I-6900J0D01*
G01*
G54D10*
G75*
G01X99873Y-565844D02*
G03X102722Y-549689I-1839J8653D01*
G01*
G54D10*
G75*
G01X107113Y-544072D02*
G03X109714Y-541470I7421J-4819D01*
G01*
G54D10*
G75*
G01X116598Y-534575D02*
G03X125334Y-542036I8736J1384D01*
G01*
G54D10*
G75*
G01X132496Y-528004D02*
G03X134195Y-526922I-1592J4373D01*
G01*
G54D10*
G75*
G01X140314Y-520801D02*
G03X141677Y-517511I-3290J3290D01*
G01*
G54D10*
G75*
G01X-146616Y-544491D02*
G03X-145254Y-547779I4650J0D01*
G01*
G54D10*
G75*
G01X-130241Y-562786D02*
G03X-126956Y-564147I3285J3285D01*
G01*
G54D10*
G75*
G01X-104973Y-564171D02*
G03X-102048Y-565860I5807J6680D01*
G01*
G54D10*
G75*
G01X-98816Y-483491D02*
G03X-94966Y-487341I3850J0D01*
G01*
G54D10*
G75*
G01X-84966Y-487341D02*
G03X-81116Y-483491I0J3850D01*
G01*
G54D10*
G75*
G01X-63633Y-478545D02*
G03X-70966Y-474646I-7333J-4946D01*
G01*
G54D10*
G75*
G01X-68085Y-475123D02*
G03X-71429Y-492329I-2881J-8368D01*
G01*
G54D10*
G75*
G01X-76687Y-497632D02*
G03X-81326Y-508832I721J-6859D01*
G01*
G54D10*
G75*
G01X-100316Y-487491D02*
G03X-100519Y-486134I-4640J0D01*
G01*
G54D10*
G75*
G01X-100502Y-486078D02*
G03X-109583Y-492320I-8464J2587D01*
G01*
G54D10*
G75*
G01X-109606Y-503491D02*
G03X-108244Y-506779I4650J0D01*
G01*
G54D10*
G75*
G01X-98261Y-516786D02*
G03X-94976Y-518147I3285J3285D01*
G01*
G54D10*
G75*
G01X-67976Y-518151D02*
G03X-64688Y-516789I0J4650D01*
G01*
G54D10*
G75*
G01X-59009Y-511502D02*
G03X-59311Y-513791I8543J-2289D01*
G01*
G54D10*
G75*
G01X-121208Y-510721D02*
G03X-129466Y-505046I-8258J-3170D01*
G01*
G54D10*
G75*
G01X-120917Y-511600D02*
G03X-133345Y-505937I-8549J-2291D01*
G01*
G54D10*
G75*
G01X-131816Y-495991D02*
G03X-115461Y-500681I8850J0D01*
G01*
G54D10*
G75*
G01X-44606Y-489501D02*
G03X-43247Y-492782I4640J0D01*
G01*
G54D10*
G75*
G01X-37624Y-498462D02*
G03X-40966Y-497598I-3342J-6029D01*
G01*
G54D10*
G75*
G01X-40966Y-497591D02*
G03X-46093Y-499874I0J-6900D01*
G01*
G54D10*
G75*
G01X-48265Y-499804D02*
G03X-47621Y-496491I-8201J3313D01*
G01*
G54D10*
G75*
G01X-47616Y-496491D02*
G03X-54475Y-487868I-8850J0D01*
G01*
G54D10*
G75*
G01X-54522Y-487850D02*
G03X-54319Y-486491I-4444J1359D01*
G01*
G54D10*
G75*
G01X13374Y-483381D02*
G03X14736Y-486669I4650J0D01*
G01*
G54D10*
G75*
G01X39913Y-511901D02*
G03X39913Y-515881I8621J-1990D01*
G01*
G54D10*
G75*
G01X-43221Y-518864D02*
G03X-42966Y-518478I-7245J5073D01*
G01*
G54D10*
G75*
G01X-37246Y-518431D02*
G03X-33958Y-517069I0J4650D01*
G01*
G54D10*
G75*
G01X-29691Y-512776D02*
G03X-28330Y-509491I-3285J3285D01*
G01*
G54D10*
G75*
G01X-28326Y-496481D02*
G03X-29688Y-493193I-4650J0D01*
G01*
G54D10*
G75*
G01X-4605Y-497604D02*
G03X1922Y-504130I-361J-6887D01*
G01*
G54D10*
G75*
G01X7324Y-498781D02*
G03X8687Y-495491I-3290J3290D01*
G01*
G54D10*
G75*
G01X102344Y-475986D02*
G03X111724Y-475986I4690J-7505D01*
G01*
G54D10*
G75*
G01X116844Y-488986D02*
G03X126224Y-488986I4690J-7505D01*
G01*
G54D10*
G75*
G01X132350Y-506376D02*
G03X127534Y-504949I-4816J-7415D01*
G01*
G54D10*
G75*
G01X131959Y-506127D02*
G03X120374Y-518993I-4425J-7664D01*
G01*
G54D10*
G75*
G01X120428Y-519017D02*
G03X117707Y-520344I566J-4614D01*
G01*
G54D10*
G75*
G01X94754Y-543311D02*
G03X93395Y-546591I3280J-3280D01*
G01*
G54D10*
G75*
G01X93344Y-549686D02*
G03X95744Y-565740I4690J-7505D01*
G01*
G54D10*
G75*
G01X81714Y-565855D02*
G03X75954Y-565855I-2880J8364D01*
G01*
G54D10*
G75*
G01X49734Y-565849D02*
G03X51431Y-564768I-1590J4368D01*
G01*
G54D10*
G75*
G01X59244Y-557012D02*
G03X52613Y-550381I1990J8621D01*
G01*
G54D10*
G75*
G01X-59588Y-556842D02*
G03X-71348Y-544875I-3878J7951D01*
G01*
G54D10*
G75*
G01X-72936Y-542164D02*
G03X-76966Y-539838I-4030J-2327D01*
G01*
G54D10*
G75*
G01X-107956Y-539841D02*
G03X-111244Y-541203I0J-4650D01*
G01*
G54D10*
G75*
G01X-111442Y-541326D02*
G03X-124268Y-543703I-5324J-7065D01*
G01*
G54D10*
G75*
G01X-130581Y-541296D02*
G03X-133301Y-526618I3315J8205D01*
G01*
G54D10*
G75*
G01X-133344Y-521843D02*
G03X-124141Y-520956I3878J7952D01*
G01*
G54D10*
G75*
G01X-118256Y-526781D02*
G03X-114966Y-528144I3290J3290D01*
G01*
G54D10*
G75*
G01X-59917Y-528114D02*
G03X-45415Y-528114I7251J-5077D01*
G01*
G54D10*
G75*
G01X38934Y-528141D02*
G03X42222Y-526779I0J4650D01*
G01*
G54D10*
G75*
G01X46544Y-522512D02*
G03X46544Y-505270I1990J8621D01*
G01*
G54D10*
G75*
G01X79184Y-483491D02*
G03X83034Y-487341I3850J0D01*
G01*
G54D10*
G75*
G01X93034Y-487341D02*
G03X96884Y-483491I0J3850D01*
G01*
G54D10*
G75*
G01X59584Y-533091D02*
G03X59584Y-533091I-8850J0D01*
G01*
G54D10*
G75*
G01X63884Y-495991D02*
G03X63884Y-495991I-8850J0D01*
G01*
G54D10*
G75*
G01X77884Y-483491D02*
G03X67043Y-474868I-8850J0D01*
G01*
X55034Y-495991D02*
G54D13*
D03*
G36*
X48034Y-457491D02*
X38034Y-457491D01*
X38034Y-447491D01*
X48034Y-447491D01*
X48034Y-457491D01*
G37*
G54D14*
X48034Y-457491D02*
X38034Y-457491D01*
X38034Y-447491D01*
X48034Y-447491D01*
X48034Y-457491D01*
G36*
X97044Y-457491D02*
X87044Y-457491D01*
X87044Y-447491D01*
X97044Y-447491D01*
X97044Y-457491D01*
G37*
G54D14*
X97044Y-457491D02*
X87044Y-457491D01*
X87044Y-447491D01*
X97044Y-447491D01*
X97044Y-457491D01*
G36*
X-110966Y-457491D02*
X-120966Y-457491D01*
X-120966Y-447491D01*
X-110966Y-447491D01*
X-110966Y-457491D01*
G37*
G54D14*
X-110966Y-457491D02*
X-120966Y-457491D01*
X-120966Y-447491D01*
X-110966Y-447491D01*
X-110966Y-457491D01*
G36*
X-34966Y-457491D02*
X-44966Y-457491D01*
X-44966Y-447491D01*
X-34966Y-447491D01*
X-34966Y-457491D01*
G37*
G54D14*
X-34966Y-457491D02*
X-44966Y-457491D01*
X-44966Y-447491D01*
X-34966Y-447491D01*
X-34966Y-457491D01*
G36*
X-60966Y-457491D02*
X-70966Y-457491D01*
X-70966Y-447491D01*
X-60966Y-447491D01*
X-60966Y-457491D01*
G37*
G54D14*
X-60966Y-457491D02*
X-70966Y-457491D01*
X-70966Y-447491D01*
X-60966Y-447491D01*
X-60966Y-457491D01*
G36*
X145034Y-457491D02*
X135034Y-457491D01*
X135034Y-447491D01*
X145034Y-447491D01*
X145034Y-457491D01*
G37*
G54D14*
X145034Y-457491D02*
X135034Y-457491D01*
X135034Y-447491D01*
X145034Y-447491D01*
X145034Y-457491D01*
G36*
X-135966Y-457491D02*
X-145966Y-457491D01*
X-145966Y-447491D01*
X-135966Y-447491D01*
X-135966Y-457491D01*
G37*
G54D14*
X-135966Y-457491D02*
X-145966Y-457491D01*
X-145966Y-447491D01*
X-135966Y-447491D01*
X-135966Y-457491D01*
G36*
X120034Y-457491D02*
X110034Y-457491D01*
X110034Y-447491D01*
X120034Y-447491D01*
X120034Y-457491D01*
G37*
G54D14*
X120034Y-457491D02*
X110034Y-457491D01*
X110034Y-447491D01*
X120034Y-447491D01*
X120034Y-457491D01*
G36*
X23034Y-457491D02*
X13034Y-457491D01*
X13034Y-447491D01*
X23034Y-447491D01*
X23034Y-457491D01*
G37*
G54D14*
X23034Y-457491D02*
X13034Y-457491D01*
X13034Y-447491D01*
X23034Y-447491D01*
X23034Y-457491D01*
G36*
X-8966Y-457491D02*
X-18966Y-457491D01*
X-18966Y-447491D01*
X-8966Y-447491D01*
X-8966Y-457491D01*
G37*
G54D14*
X-8966Y-457491D02*
X-18966Y-457491D01*
X-18966Y-447491D01*
X-8966Y-447491D01*
X-8966Y-457491D01*
G36*
X-85956Y-457481D02*
X-95956Y-457481D01*
X-95956Y-447481D01*
X-85956Y-447481D01*
X-85956Y-457481D01*
G37*
G54D14*
X-85956Y-457481D02*
X-95956Y-457481D01*
X-95956Y-447481D01*
X-85956Y-447481D01*
X-85956Y-457481D01*
G36*
X73044Y-457481D02*
X63044Y-457481D01*
X63044Y-447481D01*
X73044Y-447481D01*
X73044Y-457481D01*
G37*
G54D14*
X73044Y-457481D02*
X63044Y-457481D01*
X63044Y-447481D01*
X73044Y-447481D01*
X73044Y-457481D01*
G36*
X-84962Y-483478D02*
X-94962Y-483478D01*
X-94962Y-473478D01*
X-84962Y-473478D01*
X-84962Y-483478D01*
G37*
G36*
X93038Y-483478D02*
X83038Y-483478D01*
X83038Y-473478D01*
X93038Y-473478D01*
X93038Y-483478D01*
G37*
G54D12*
X-33890Y-249816D02*
X-33890Y-241076D01*
X-29830Y-237016D01*
X-11005Y-237016D01*
G54D12*
X-41870Y-249816D02*
X-41870Y-265996D01*
X-40830Y-265996D01*
G54D12*
X-61830Y-270006D02*
X-61830Y-266016D01*
X-57870Y-262056D01*
X-57870Y-249816D01*
G54D12*
X-65870Y-249816D02*
X-65870Y-256036D01*
X-76820Y-266986D01*
X-76820Y-272016D01*
G54D12*
X5860Y-232006D02*
X-63840Y-232006D01*
X-73830Y-241996D01*
X-82830Y-257996D01*
X-98820Y-273996D01*
X-98820Y-326446D01*
X-120840Y-348466D01*
X-120840Y-370846D01*
G54D12*
X-79770Y-176186D02*
X-85822Y-176239D01*
X-131840Y-222256D01*
X-131840Y-322996D01*
X-169280Y-360456D01*
X-177990Y-379996D01*
G54D12*
X-97830Y-75996D02*
X-97830Y-113006D01*
X-90670Y-120156D01*
X-72830Y-120156D01*
X-68650Y-120156D01*
X-66660Y-122156D01*
X-66660Y-126166D01*
X-41770Y-151056D01*
X-41770Y-162186D01*
G54D12*
X-181830Y-102996D02*
X-152980Y-131846D01*
X-152830Y-131846D01*
G54D12*
X-17890Y-249816D02*
X-17820Y-281996D01*
X-12840Y-286996D01*
X-12840Y-357996D01*
X-10830Y-359996D01*
X-10830Y-363126D01*
X-10830Y-371836D01*
G54D12*
X4170Y-249996D02*
X3990Y-249816D01*
X-9880Y-249816D01*
G54D12*
X58180Y-317836D02*
X73170Y-317986D01*
G54D12*
X58170Y-338156D02*
X63570Y-343556D01*
X63570Y-364586D01*
G54D12*
X93400Y-122346D02*
X92750Y-122996D01*
X73170Y-122996D01*
X73170Y-140996D01*
X76190Y-144016D01*
X76190Y-147146D01*
G54D12*
X50180Y-47996D02*
X40180Y-57996D01*
X23230Y-57996D01*
X23230Y-57996D01*
X18220Y-62996D01*
X18220Y-78716D01*
G54D15*
X-91830Y-33986D02*
X-73820Y-51996D01*
X-73820Y-76006D01*
G54D12*
X-91830Y-33986D02*
X-73820Y-51996D01*
X-73820Y-76006D01*
G54D15*
X-8820Y-101836D02*
X-10820Y-99836D01*
X-47830Y-99836D01*
X-72830Y-99836D01*
X-73830Y-98836D01*
X-73830Y-75996D01*
G54D15*
X-72830Y-99836D02*
X-72830Y-99836D01*
G54D12*
X-205320Y-230496D02*
X-172660Y-263156D01*
X-155830Y-263156D01*
X-153970Y-263156D01*
X-143830Y-253016D01*
X-143830Y-214006D01*
X-92820Y-162996D01*
X-66580Y-162996D01*
X-65770Y-162186D01*
G54D12*
X-49870Y-249816D02*
X-49870Y-275796D01*
X-55810Y-281746D01*
X-55810Y-319436D01*
X-51830Y-329996D01*
X-51830Y-352126D01*
X-40830Y-363126D01*
X-40830Y-371836D01*
G54D12*
X-10830Y-392156D02*
X-430Y-402556D01*
X-430Y-411586D01*
G54D12*
X20780Y-411586D02*
X21350Y-412156D01*
X21350Y-421996D01*
G54D12*
X-19220Y-411586D02*
X-19550Y-411906D01*
X-19550Y-421996D01*
G54D12*
X-340Y-285506D02*
X8850Y-285506D01*
X17360Y-294006D01*
X38170Y-294006D01*
X41570Y-297386D01*
X41570Y-306506D01*
X41570Y-353956D01*
X44770Y-357156D01*
X44770Y-364596D01*
X44770Y-374406D01*
X41170Y-377996D01*
X41170Y-397996D01*
X42170Y-397996D01*
X48170Y-403996D01*
X48170Y-424996D01*
X44170Y-428996D01*
X44170Y-427996D01*
X38170Y-421996D01*
X-58830Y-421996D01*
X-59220Y-421606D01*
X-59220Y-412586D01*
G54D12*
X-167830Y-424416D02*
X-167410Y-424416D01*
X-139830Y-451996D01*
G54D12*
X-130820Y-433416D02*
X-130820Y-436006D01*
X-114830Y-451996D01*
G54D12*
X-93820Y-426526D02*
X-93820Y-448006D01*
X-89830Y-451996D01*
G54D12*
X-94830Y-394996D02*
X-94830Y-406476D01*
X-93820Y-407476D01*
G54D12*
X-49830Y-433416D02*
X-49830Y-440996D01*
X-38830Y-451996D01*
G54D12*
X30180Y-432416D02*
X30180Y-440996D01*
X19170Y-451996D01*
G54D12*
X39570Y-411586D02*
X21150Y-393156D01*
X19170Y-393156D01*
G54D12*
X54170Y-385426D02*
X54170Y-441986D01*
X44160Y-451996D01*
G54D12*
X189140Y-329136D02*
X171190Y-347086D01*
X171190Y-395866D01*
X161760Y-405286D01*
X161760Y-408996D01*
X149750Y-421006D01*
X131710Y-421006D01*
X124780Y-410586D01*
X124780Y-410596D01*
X124780Y-413386D01*
X117190Y-421006D01*
X88760Y-420986D01*
G54D12*
X88760Y-420986D02*
X88760Y-410596D01*
G54D12*
X134170Y-431416D02*
X134170Y-434006D01*
X116170Y-451996D01*
G54D12*
X171170Y-422416D02*
X170760Y-422416D01*
X141170Y-451996D01*
G54D12*
X98160Y-431426D02*
X98160Y-438846D01*
X98160Y-441026D01*
X93180Y-446006D01*
X93180Y-451996D01*
G54D12*
X160160Y-294996D02*
X160160Y-326696D01*
X140860Y-346006D01*
X130170Y-346006D01*
X119500Y-346006D01*
X118990Y-345496D01*
X106670Y-345496D01*
G54D15*
X142170Y-236746D02*
X193130Y-236746D01*
X204230Y-247846D01*
G54D15*
X140680Y-169246D02*
X144690Y-173246D01*
X165540Y-173246D01*
G54D15*
X118810Y-173246D02*
X118810Y-121446D01*
X112820Y-115456D01*
X112820Y-44646D01*
X111170Y-42996D01*
G54D12*
X34180Y-193455D02*
X23990Y-193455D01*
X17900Y-199555D01*
X-60840Y-199555D01*
X-68950Y-191455D01*
X-87130Y-191455D01*
X-93630Y-197955D01*
G54D12*
X106160Y-369826D02*
X106160Y-361116D01*
X87160Y-360986D01*
G54D12*
X136180Y-369826D02*
X136180Y-361116D01*
X122160Y-360986D01*
G54D12*
X107670Y-291996D02*
X132170Y-291996D01*
X135170Y-294996D01*
X140170Y-294996D01*
G54D12*
X-17790Y-162186D02*
X-17790Y-152966D01*
X-14820Y-149996D01*
X49820Y-149996D01*
X81170Y-181336D01*
X81170Y-265006D01*
X75170Y-270996D01*
X50840Y-270996D01*
X37840Y-284006D01*
X27170Y-284006D01*
G54D12*
X-9790Y-162186D02*
X37350Y-162186D01*
X46170Y-170996D01*
X46170Y-202016D01*
X50180Y-205996D01*
X70170Y-205996D01*
X73170Y-208996D01*
X73170Y-238996D01*
X63190Y-249006D01*
X63190Y-260986D01*
G54D12*
X32960Y-135056D02*
X21500Y-133586D01*
X-90Y-111996D01*
X-17410Y-111996D01*
X-39560Y-134146D01*
X-42830Y-130896D01*
X-47830Y-125896D01*
X-47830Y-120156D01*
G54D12*
X-8820Y-122156D02*
X-8820Y-126526D01*
X8650Y-143996D01*
X45180Y-143996D01*
X50180Y-138996D01*
X50180Y-127996D01*
X44540Y-122356D01*
X32960Y-122356D01*
G54D12*
X-12830Y-102996D02*
X-12830Y-99416D01*
G54D12*
X81170Y-50166D02*
X71010Y-50166D01*
X71010Y-48836D01*
X50180Y-27996D01*
X41460Y-19286D01*
X18220Y-19286D01*
X18220Y-30946D01*
X16170Y-32996D01*
X-1592Y-32996D01*
X-6932Y-27666D01*
X-6932Y-19286D01*
G54D12*
X5520Y-19286D02*
X5520Y-17636D01*
X16170Y-6986D01*
X28180Y-6986D01*
X81170Y-21116D01*
X81170Y-29846D01*
G54D12*
X-25330Y-294996D02*
X-23820Y-296506D01*
X-23820Y-319996D01*
G54D12*
X-45830Y-294996D02*
X-44830Y-296006D01*
X-44830Y-319996D01*
G54D12*
X-340Y-304496D02*
X15990Y-304496D01*
X16500Y-303996D01*
X27170Y-303996D01*
G54D12*
X-81520Y-233816D02*
X-81520Y-241636D01*
X-96630Y-256776D01*
G54D12*
X5860Y-183555D02*
X-7410Y-183555D01*
G54D12*
X-145670Y-314996D02*
X-145670Y-307816D01*
X-147660Y-305826D01*
X-137830Y-295996D01*
X-137830Y-218016D01*
X-91500Y-171686D01*
G54D12*
X81680Y-335996D02*
X72510Y-335996D01*
X72510Y-393526D01*
X77080Y-398096D01*
X77080Y-405466D01*
X67170Y-405466D01*
G54D12*
X-95560Y-362646D02*
X-95560Y-357946D01*
X-98820Y-354666D01*
X-98820Y-345496D01*
G54D12*
X-157670Y-379986D02*
X-157670Y-395406D01*
X-158430Y-396166D01*
X-158430Y-403586D01*
G54D12*
X-120840Y-391166D02*
X-120840Y-399876D01*
X-121420Y-400486D01*
X-121420Y-412576D01*
G54D12*
X-61990Y-340996D02*
X-61990Y-351156D01*
X-63430Y-352606D01*
X-63430Y-366576D01*
G54D12*
X-40830Y-392156D02*
X-40830Y-400896D01*
X-40420Y-401276D01*
X-40420Y-412576D01*
G54D12*
X106160Y-390146D02*
X106160Y-398886D01*
X107560Y-400286D01*
X107560Y-410596D01*
G54D12*
X136180Y-390146D02*
X136180Y-398886D01*
X140450Y-403156D01*
X143580Y-403156D01*
X143580Y-410596D01*
G54D12*
X181320Y-378996D02*
X181320Y-393396D01*
X180560Y-394166D01*
X180560Y-401576D01*
G54D12*
X34180Y-216156D02*
X23990Y-216156D01*
X17740Y-209906D01*
X5860Y-209906D01*
G54D12*
X59170Y-195836D02*
X59170Y-175006D01*
X59170Y-175006D01*
G54D12*
X67170Y-424516D02*
X77080Y-424516D01*
X77080Y-444096D01*
X69180Y-451996D01*
G54D12*
X-64830Y-451996D02*
X-72830Y-443996D01*
X-72830Y-387406D01*
G54D12*
X-9840Y-432416D02*
X-9840Y-439836D01*
X-12840Y-442826D01*
X-12840Y-451996D01*
G54D12*
X-161990Y-186996D02*
X-180130Y-186996D01*
X-184130Y-190996D01*
G54D12*
X-165990Y-314996D02*
X-184130Y-314996D01*
X-184130Y-314996D01*
G54D12*
X-41670Y-340996D02*
X-41670Y-330816D01*
X-34500Y-323656D01*
X-34500Y-279686D01*
X-25890Y-271076D01*
X-25890Y-249816D01*
G54D12*
X19170Y-372826D02*
X19170Y-362236D01*
G54D12*
X106670Y-326496D02*
X118990Y-326496D01*
X119500Y-325986D01*
X127700Y-325986D01*
X130170Y-325986D01*
G54D12*
X127700Y-325986D02*
X126170Y-324466D01*
X126170Y-312006D01*
G54D12*
X-25790Y-162186D02*
X-25790Y-147836D01*
X-8820Y-130896D01*
X-8820Y-126526D01*
G54D12*
X-39560Y-134146D02*
X-33790Y-139936D01*
X-33790Y-162186D01*
G54D12*
X-47830Y-99836D02*
X-45210Y-99836D01*
X-42830Y-97466D01*
G54D12*
X-57907Y-224329D02*
X3314Y-224361D01*
G54D12*
X-174940Y-403586D02*
X-177230Y-403586D01*
X-184160Y-403586D01*
X-209530Y-378216D01*
X-209530Y-314996D01*
X-230790Y-293736D01*
X-230790Y-212266D01*
X-209530Y-190996D01*
X-197370Y-203156D01*
X-170670Y-203156D01*
X-155830Y-217996D01*
X-155830Y-242836D01*
G54D12*
X-82230Y-366576D02*
X-82230Y-373996D01*
X-72200Y-373996D01*
X-59220Y-386976D01*
X-59220Y-412576D01*
G54D12*
X84268Y-301496D02*
X46580Y-301496D01*
X41570Y-306506D01*
G54D12*
X-50830Y-47996D02*
X-50830Y-58456D01*
X-43820Y-65456D01*
G54D12*
X-43820Y-76006D02*
X-43820Y-65466D01*
G54D12*
X-104840Y-248006D02*
X-109660Y-252836D01*
X-116620Y-252836D01*
G54D12*
X76090Y-50166D02*
X67630Y-58606D01*
X67630Y-96956D01*
X32960Y-96956D01*
G54D12*
X-131480Y-381006D02*
X-94240Y-381006D01*
X-87260Y-373996D01*
X-82230Y-373996D01*
G54D12*
X-49770Y-162186D02*
X-49770Y-153066D01*
X-63890Y-138946D01*
X-82890Y-138946D01*
X-124830Y-97006D01*
X-124830Y-76006D01*
G54D12*
X-57770Y-162186D02*
X-57770Y-156036D01*
X-67220Y-146586D01*
X-90230Y-146586D01*
X-145830Y-90986D01*
X-145830Y-76006D01*
X-151830Y-76006D01*
G54D12*
X-186830Y-153696D02*
X-185290Y-152166D01*
X-152830Y-152166D01*
G54D12*
X-19870Y-19286D02*
X-19870Y-40946D01*
X-2830Y-57996D01*
X23180Y-57996D01*
G54D12*
X5530Y-78716D02*
X5530Y-70336D01*
X170Y-65006D01*
X-7830Y-65006D01*
X-26830Y-46076D01*
X-26830Y-27026D01*
X-39840Y-14076D01*
X-57820Y-14076D01*
X-68820Y-24996D01*
X-68820Y-41996D01*
G54D15*
X118810Y-147426D02*
X190590Y-147426D01*
X221170Y-178006D01*
X221170Y-289006D01*
X188180Y-322006D01*
X188180Y-328506D01*
X181680Y-335006D01*
G54D16*
X100900Y-135046D02*
X85900Y-135046D01*
G54D16*
X100900Y-122346D02*
X85900Y-122346D01*
G54D16*
X100900Y-109646D02*
X85900Y-109646D01*
G54D16*
X100900Y-96946D02*
X85900Y-96946D01*
G54D16*
X40450Y-135046D02*
X25450Y-135046D01*
G54D16*
X40450Y-122346D02*
X25450Y-122346D01*
G54D16*
X40450Y-109646D02*
X25450Y-109646D01*
G54D16*
X40450Y-96946D02*
X25450Y-96946D01*
G54D17*
X-19880Y-73716D02*
X-19880Y-83716D01*
G54D17*
X-7180Y-73716D02*
X-7180Y-83716D01*
G54D17*
X5520Y-73716D02*
X5520Y-83716D01*
G54D17*
X18220Y-73716D02*
X18220Y-83716D01*
G54D17*
X-19880Y-14286D02*
X-19880Y-24286D01*
G54D17*
X-7180Y-14286D02*
X-7180Y-24286D01*
G54D17*
X5520Y-14286D02*
X5520Y-24286D01*
G54D17*
X18220Y-14286D02*
X18220Y-24286D01*
G54D18*
X-65770Y-156186D02*
X-65770Y-168186D01*
G36*
X-36200Y-83616D02*
X-51440Y-83616D01*
X-51440Y-68376D01*
X-36200Y-68376D01*
X-36200Y-83616D01*
G37*
G54D14*
X-36200Y-83616D02*
X-51440Y-83616D01*
X-51440Y-68376D01*
X-36200Y-68376D01*
X-36200Y-83616D01*
G36*
X-66210Y-83616D02*
X-81450Y-83616D01*
X-81450Y-68376D01*
X-66210Y-68376D01*
X-66210Y-83616D01*
G37*
G54D14*
X-66210Y-83616D02*
X-81450Y-83616D01*
X-81450Y-68376D01*
X-66210Y-68376D01*
X-66210Y-83616D01*
G36*
X-90210Y-83616D02*
X-105450Y-83616D01*
X-105450Y-68376D01*
X-90210Y-68376D01*
X-90210Y-83616D01*
G37*
G54D14*
X-90210Y-83616D02*
X-105450Y-83616D01*
X-105450Y-68376D01*
X-90210Y-68376D01*
X-90210Y-83616D01*
G36*
X-117210Y-83616D02*
X-132450Y-83616D01*
X-132450Y-68376D01*
X-117210Y-68376D01*
X-117210Y-83616D01*
G37*
G54D14*
X-117210Y-83616D02*
X-132450Y-83616D01*
X-132450Y-68376D01*
X-117210Y-68376D01*
X-117210Y-83616D01*
G36*
X-144210Y-83616D02*
X-159450Y-83616D01*
X-159450Y-68376D01*
X-144210Y-68376D01*
X-144210Y-83616D01*
G37*
G54D14*
X-144210Y-83616D02*
X-159450Y-83616D01*
X-159450Y-68376D01*
X-144210Y-68376D01*
X-144210Y-83616D01*
X63180Y-280996D02*
G54D19*
D03*
X63180Y-260996D02*
G54D19*
D03*
X27170Y-303996D02*
G54D19*
D03*
X27170Y-283996D02*
G54D19*
D03*
X130180Y-326006D02*
G54D19*
D03*
X130180Y-346006D02*
G54D19*
D03*
X-108830Y-294996D02*
G54D20*
D03*
X-88830Y-294996D02*
G54D20*
D03*
X-65830Y-294996D02*
G54D20*
D03*
X-45830Y-294996D02*
G54D20*
D03*
X160180Y-294996D02*
G54D20*
D03*
X140180Y-294996D02*
G54D20*
D03*
G36*
X-109180Y-230866D02*
X-104410Y-235986D01*
X-116840Y-247586D01*
X-121610Y-242466D01*
X-109180Y-230866D01*
G37*
G54D14*
X-109180Y-230866D02*
X-104410Y-235986D01*
X-116840Y-247586D01*
X-121610Y-242466D01*
X-109180Y-230866D01*
G36*
X-101000Y-239646D02*
X-96220Y-244766D01*
X-108650Y-256356D01*
X-113430Y-251236D01*
X-101000Y-239646D01*
G37*
G54D14*
X-101000Y-239646D02*
X-96220Y-244766D01*
X-108650Y-256356D01*
X-113430Y-251236D01*
X-101000Y-239646D01*
G36*
X-92810Y-248416D02*
X-88040Y-253536D01*
X-100470Y-265136D01*
X-105250Y-260016D01*
X-92810Y-248416D01*
G37*
G54D14*
X-92810Y-248416D02*
X-88040Y-253536D01*
X-100470Y-265136D01*
X-105250Y-260016D01*
X-92810Y-248416D01*
X59170Y-195836D02*
G54D21*
D03*
X59170Y-216156D02*
G54D21*
D03*
X81170Y-50156D02*
G54D21*
D03*
X81170Y-29836D02*
G54D21*
D03*
X-152830Y-152166D02*
G54D21*
D03*
X-152830Y-131846D02*
G54D21*
D03*
X-8830Y-101846D02*
G54D21*
D03*
X-8830Y-122166D02*
G54D21*
D03*
X-72830Y-120156D02*
G54D21*
D03*
X-72830Y-99836D02*
G54D21*
D03*
G36*
X-86840Y-403026D02*
X-86840Y-411916D01*
X-100810Y-411916D01*
X-100810Y-403026D01*
X-86840Y-403026D01*
G37*
G54D14*
X-86840Y-403026D02*
X-86840Y-411916D01*
X-100810Y-411916D01*
X-100810Y-403026D01*
X-86840Y-403026D01*
G36*
X-86840Y-422076D02*
X-86840Y-430966D01*
X-100810Y-430966D01*
X-100810Y-422076D01*
X-86840Y-422076D01*
G37*
G54D14*
X-86840Y-422076D02*
X-86840Y-430966D01*
X-100810Y-430966D01*
X-100810Y-422076D01*
X-86840Y-422076D01*
X165540Y-173246D02*
G54D22*
D03*
X118810Y-173246D02*
G54D22*
D03*
X142170Y-236746D02*
G54D23*
D03*
X34170Y-216156D02*
G54D21*
D03*
X34170Y-195836D02*
G54D21*
D03*
X-177990Y-379996D02*
G54D24*
D03*
X-157670Y-379996D02*
G54D24*
D03*
X161010Y-379006D02*
G54D24*
D03*
X181330Y-379006D02*
G54D24*
D03*
X136170Y-369836D02*
G54D21*
D03*
X136170Y-390156D02*
G54D21*
D03*
X106170Y-369836D02*
G54D21*
D03*
X106170Y-390156D02*
G54D21*
D03*
X-40830Y-371836D02*
G54D21*
D03*
X-40830Y-392156D02*
G54D21*
D03*
X19170Y-372846D02*
G54D21*
D03*
X19170Y-393166D02*
G54D21*
D03*
X-41670Y-340996D02*
G54D24*
D03*
X-61990Y-340996D02*
G54D24*
D03*
X-10830Y-371836D02*
G54D21*
D03*
X-10830Y-392156D02*
G54D21*
D03*
X58170Y-317836D02*
G54D21*
D03*
X58170Y-338156D02*
G54D21*
D03*
X-120820Y-370836D02*
G54D21*
D03*
X-120820Y-391156D02*
G54D21*
D03*
X-165990Y-314996D02*
G54D24*
D03*
X-145670Y-314996D02*
G54D24*
D03*
X-161990Y-186996D02*
G54D24*
D03*
X-141670Y-186996D02*
G54D24*
D03*
X-47830Y-99836D02*
G54D21*
D03*
X-47830Y-120156D02*
G54D21*
D03*
G36*
X74160Y-401026D02*
X74160Y-409916D01*
X60190Y-409916D01*
X60190Y-401026D01*
X74160Y-401026D01*
G37*
G54D14*
X74160Y-401026D02*
X74160Y-409916D01*
X60190Y-409916D01*
X60190Y-401026D01*
X74160Y-401026D01*
G36*
X74160Y-420076D02*
X74160Y-428966D01*
X60190Y-428966D01*
X60190Y-420076D01*
X74160Y-420076D01*
G37*
G54D14*
X74160Y-420076D02*
X74160Y-428966D01*
X60190Y-428966D01*
X60190Y-420076D01*
X74160Y-420076D01*
X-155830Y-242836D02*
G54D21*
D03*
X-155830Y-263156D02*
G54D21*
D03*
G54D10*
G75*
G01X23230Y-52846D02*
G03X23140Y-52847I0J-5150D01*
G01*
X-91832Y-33998D02*
G54D25*
D03*
X111168Y-42998D02*
G54D25*
D03*
X204210Y-197036D02*
G54D26*
D03*
X-205320Y-230496D02*
G54D27*
D03*
X-205320Y-275506D02*
G54D27*
D03*
X-180330Y-217996D02*
G54D28*
D03*
X-180330Y-288006D02*
G54D28*
D03*
X-186830Y-128296D02*
G54D29*
D03*
X-186830Y-153696D02*
G54D29*
D03*
X-184130Y-314996D02*
G54D29*
D03*
X-209530Y-314996D02*
G54D29*
D03*
X-184130Y-190996D02*
G54D29*
D03*
X-209530Y-190996D02*
G54D29*
D03*
X204230Y-247846D02*
G54D30*
D03*
X50180Y-28000D02*
G54D31*
D03*
G36*
X-145466Y-443491D02*
X-136466Y-443491D01*
X-136466Y-461491D01*
X-145466Y-461491D01*
X-145466Y-443491D01*
G37*
X-140966Y-452491D02*
G54D32*
D03*
G36*
X-120456Y-443481D02*
X-111456Y-443481D01*
X-111456Y-461481D01*
X-120456Y-461481D01*
X-120456Y-443481D01*
G37*
X-115956Y-452481D02*
G54D32*
D03*
G36*
X-95456Y-443481D02*
X-86456Y-443481D01*
X-86456Y-461481D01*
X-95456Y-461481D01*
X-95456Y-443481D01*
G37*
X-90956Y-452481D02*
G54D32*
D03*
G36*
X-70466Y-443491D02*
X-61466Y-443491D01*
X-61466Y-461491D01*
X-70466Y-461491D01*
X-70466Y-443491D01*
G37*
X-65966Y-452491D02*
G54D32*
D03*
G36*
X-44456Y-443481D02*
X-35456Y-443481D01*
X-35456Y-461481D01*
X-44456Y-461481D01*
X-44456Y-443481D01*
G37*
X-39956Y-452481D02*
G54D32*
D03*
G36*
X-18476Y-443481D02*
X-9476Y-443481D01*
X-9476Y-461481D01*
X-18476Y-461481D01*
X-18476Y-443481D01*
G37*
X-13976Y-452481D02*
G54D32*
D03*
G36*
X13534Y-443481D02*
X22534Y-443481D01*
X22534Y-461481D01*
X13534Y-461481D01*
X13534Y-443481D01*
G37*
X18034Y-452481D02*
G54D32*
D03*
G36*
X38524Y-443481D02*
X47524Y-443481D01*
X47524Y-461481D01*
X38524Y-461481D01*
X38524Y-443481D01*
G37*
X43024Y-452481D02*
G54D32*
D03*
G36*
X87544Y-443481D02*
X96544Y-443481D01*
X96544Y-461481D01*
X87544Y-461481D01*
X87544Y-443481D01*
G37*
X92044Y-452481D02*
G54D32*
D03*
G36*
X63514Y-443481D02*
X72514Y-443481D01*
X72514Y-461481D01*
X63514Y-461481D01*
X63514Y-443481D01*
G37*
X68014Y-452481D02*
G54D32*
D03*
G36*
X110534Y-443481D02*
X119534Y-443481D01*
X119534Y-461481D01*
X110534Y-461481D01*
X110534Y-443481D01*
G37*
X115034Y-452481D02*
G54D32*
D03*
G36*
X135524Y-443481D02*
X144524Y-443481D01*
X144524Y-461481D01*
X135524Y-461481D01*
X135524Y-443481D01*
G37*
X140024Y-452481D02*
G54D32*
D03*
G54D11*
X61244Y-548391D02*
X48154Y-561471D01*
X-66956Y-561471D01*
X-66966Y-561491D01*
X-76956Y-544481D01*
X-107956Y-544481D01*
X-111866Y-548391D01*
X-116766Y-548391D01*
X-130046Y-548391D01*
X-137946Y-540491D01*
X-137946Y-474481D01*
G54D11*
X-137946Y-474481D02*
X-137502Y-474481D01*
X-130982Y-467960D01*
X-119870Y-467960D01*
X-116694Y-464786D01*
X-116694Y-453220D01*
X-115956Y-452481D01*
X4034Y-468666D02*
G54D33*
D03*
X-4966Y-504491D02*
G54D33*
D03*
X-40966Y-504491D02*
G54D33*
D03*
X-75966Y-504481D02*
G54D33*
D03*
X-94830Y-395006D02*
G54D33*
D03*
X-95560Y-362646D02*
G54D33*
D03*
X19170Y-362236D02*
G54D33*
D03*
X-23830Y-320006D02*
G54D33*
D03*
X-44830Y-320006D02*
G54D33*
D03*
X-76830Y-272006D02*
G54D33*
D03*
X-61830Y-270006D02*
G54D33*
D03*
X-40830Y-266006D02*
G54D33*
D03*
X4170Y-250006D02*
G54D33*
D03*
X-24018Y-184615D02*
G54D33*
D03*
X-53580Y-191615D02*
G54D33*
D03*
X59170Y-175006D02*
G54D33*
D03*
X140680Y-169246D02*
G54D33*
D03*
X176360Y-301656D02*
G54D33*
D03*
X126170Y-312006D02*
G54D33*
D03*
X73160Y-317996D02*
G54D33*
D03*
X87160Y-360986D02*
G54D33*
D03*
X122160Y-360986D02*
G54D33*
D03*
X76200Y-147638D02*
G54D33*
D03*
X-181830Y-102996D02*
G54D33*
D03*
X12700Y-104775D02*
G54D33*
D03*
X-130557Y-186996D02*
G54D33*
D03*
X-109060Y-308996D02*
G54D33*
D03*
X-68830Y-42006D02*
G54D33*
D03*
X69034Y-483491D02*
G54D13*
D03*
X107034Y-483481D02*
G54D13*
D03*
X121534Y-496491D02*
G54D13*
D03*
X127534Y-513791D02*
G54D13*
D03*
X125334Y-533181D02*
G54D13*
D03*
X114534Y-548891D02*
G54D13*
D03*
X98044Y-557181D02*
G54D13*
D03*
X78834Y-557481D02*
G54D13*
D03*
X61244Y-548391D02*
G54D13*
D03*
X50734Y-533081D02*
G54D13*
D03*
X48544Y-513881D02*
G54D13*
D03*
X-50466Y-513791D02*
G54D13*
D03*
X-56466Y-496491D02*
G54D13*
D03*
X-70966Y-483481D02*
G54D13*
D03*
X-108966Y-483481D02*
G54D13*
D03*
X-122966Y-495991D02*
G54D13*
D03*
X-129466Y-513881D02*
G54D13*
D03*
X-127266Y-533081D02*
G54D13*
D03*
X-116766Y-548391D02*
G54D13*
D03*
X-99166Y-557491D02*
G54D13*
D03*
X-79966Y-557181D02*
G54D13*
D03*
X-63466Y-548881D02*
G54D13*
D03*
X-52666Y-533181D02*
G54D13*
D03*
G54D12*
X-79770Y-200186D02*
X-69688Y-200186D01*
X-68262Y-201613D01*
X-68262Y-214313D01*
X-69850Y-215900D01*
X-79484Y-215900D01*
X-79770Y-216186D01*
G54D12*
X-68262Y-214313D02*
X-65087Y-214313D01*
X-61912Y-217488D01*
X-61912Y-220324D01*
X-57907Y-224329D01*
G54D12*
X-102630Y-207425D02*
X-93630Y-197955D01*
G54D12*
X-79770Y-208186D02*
X-99788Y-208186D01*
X-101600Y-206376D01*
X-61912Y-217488D02*
G54D33*
D03*
G54D34*
X-7410Y-183555D02*
X-12182Y-183555D01*
X-17462Y-188912D01*
G54D12*
X-67463Y-176213D02*
X1382Y-176114D01*
X44170Y-428996D02*
G54D33*
D03*
X87033Y-428996D02*
G54D33*
D03*
G54D12*
X87033Y-428996D02*
X87033Y-422714D01*
X88760Y-420986D01*
X-18030Y-43594D02*
G54D33*
D03*
X50180Y-47996D02*
G54D31*
D03*
X-50830Y-47996D02*
G54D31*
D03*
X-50830Y-27996D02*
G54D31*
D03*
X181680Y-334996D02*
G54D35*
D03*
X206580Y-334996D02*
G54D35*
D03*
G54D15*
X-8830Y-101846D02*
X9771Y-101846D01*
X12700Y-104775D01*
G54D15*
X-19880Y-83716D02*
X-19880Y-90796D01*
X-8830Y-101846D01*
G54D34*
X-79770Y-184186D02*
X-24446Y-184186D01*
X-24018Y-184615D01*
G54D34*
X-53580Y-191615D02*
X-20165Y-191615D01*
X-17462Y-188912D01*
G54D34*
X-130557Y-186996D02*
X-141670Y-186996D01*
G54D34*
X161010Y-379006D02*
X161010Y-337465D01*
X176212Y-322262D01*
X176212Y-301804D01*
X176360Y-301656D01*
G54D12*
X-102630Y-207425D02*
X-126830Y-231605D01*
X-126830Y-245625D01*
X-116620Y-252836D01*
X-122770Y-256575D01*
X-122770Y-325385D01*
X-131480Y-334095D01*
X-131480Y-378625D01*
X-140220Y-387365D01*
X-140220Y-410195D01*
G54D34*
X-177220Y-403586D02*
X-177220Y-406980D01*
X-171450Y-412750D01*
X-140384Y-412750D01*
X-140220Y-412586D01*
X180570Y-401586D02*
G54D36*
D03*
X160570Y-401586D02*
G54D36*
D03*
X170570Y-421586D02*
G54D36*
D03*
X144780Y-410596D02*
G54D36*
D03*
X124780Y-410596D02*
G54D36*
D03*
X134780Y-430596D02*
G54D36*
D03*
X108760Y-410596D02*
G54D36*
D03*
X88760Y-410596D02*
G54D36*
D03*
X98760Y-430596D02*
G54D36*
D03*
X40780Y-411586D02*
G54D36*
D03*
X20780Y-411586D02*
G54D36*
D03*
X30780Y-431586D02*
G54D36*
D03*
X450Y-411906D02*
G54D36*
D03*
X-19550Y-411906D02*
G54D36*
D03*
X-9550Y-431906D02*
G54D36*
D03*
X-39830Y-413416D02*
G54D36*
D03*
X-59830Y-413416D02*
G54D36*
D03*
X-49830Y-433416D02*
G54D36*
D03*
X-120820Y-413416D02*
G54D36*
D03*
X-140820Y-413416D02*
G54D36*
D03*
X-130820Y-433416D02*
G54D36*
D03*
X-157410Y-404416D02*
G54D36*
D03*
X-177410Y-404416D02*
G54D36*
D03*
X-167410Y-424416D02*
G54D36*
D03*
X-62830Y-367406D02*
G54D36*
D03*
X-82830Y-367406D02*
G54D36*
D03*
X-72830Y-387406D02*
G54D36*
D03*
X64170Y-365426D02*
G54D36*
D03*
X44170Y-365426D02*
G54D36*
D03*
X54170Y-385426D02*
G54D36*
D03*
X101680Y-345996D02*
G54D37*
D03*
X101680Y-325996D02*
G54D37*
D03*
X81680Y-335996D02*
G54D37*
D03*
X87670Y-281997D02*
G54D37*
D03*
X87670Y-301996D02*
G54D37*
D03*
X107670Y-291996D02*
G54D37*
D03*
G54D34*
X87670Y-281997D02*
X64181Y-281997D01*
X63180Y-280996D01*
X-2721Y-305527D02*
G54D37*
D03*
X-2721Y-285527D02*
G54D37*
D03*
X-22721Y-295527D02*
G54D37*
D03*
X-88320Y-320506D02*
G54D36*
D03*
X-108320Y-320506D02*
G54D36*
D03*
X-98320Y-340506D02*
G54D36*
D03*
G54D34*
X-88320Y-320506D02*
X-88320Y-295506D01*
X-88830Y-294996D01*
X-65830Y-294996D01*
G54D34*
X-108830Y-294996D02*
X-108830Y-319996D01*
X-108320Y-320506D01*
G36*
X-88408Y-175374D02*
X-86408Y-173374D01*
X-75408Y-173374D01*
X-74408Y-174374D01*
X-74408Y-178374D01*
X-75408Y-179374D01*
X-86408Y-179374D01*
X-88408Y-177374D01*
X-88408Y-175374D01*
G37*
G54D14*
X-88408Y-175374D02*
X-86408Y-173374D01*
X-75408Y-173374D01*
X-74408Y-174374D01*
X-74408Y-178374D01*
X-75408Y-179374D01*
X-86408Y-179374D01*
X-88408Y-177374D01*
X-88408Y-175374D01*
G36*
X-88408Y-183374D02*
X-86408Y-181374D01*
X-75408Y-181374D01*
X-74408Y-182374D01*
X-74408Y-186374D01*
X-75408Y-187374D01*
X-86408Y-187374D01*
X-88408Y-185374D01*
X-88408Y-183374D01*
G37*
G54D14*
X-88408Y-183374D02*
X-86408Y-181374D01*
X-75408Y-181374D01*
X-74408Y-182374D01*
X-74408Y-186374D01*
X-75408Y-187374D01*
X-86408Y-187374D01*
X-88408Y-185374D01*
X-88408Y-183374D01*
X-79908Y-176374D02*
G54D38*
D03*
X-79908Y-184374D02*
G54D38*
D03*
G36*
X-88408Y-191374D02*
X-86408Y-189374D01*
X-75408Y-189374D01*
X-74408Y-190374D01*
X-74408Y-194374D01*
X-75408Y-195374D01*
X-86408Y-195374D01*
X-88408Y-193374D01*
X-88408Y-191374D01*
G37*
G54D14*
X-88408Y-191374D02*
X-86408Y-189374D01*
X-75408Y-189374D01*
X-74408Y-190374D01*
X-74408Y-194374D01*
X-75408Y-195374D01*
X-86408Y-195374D01*
X-88408Y-193374D01*
X-88408Y-191374D01*
G36*
X-88408Y-199374D02*
X-86408Y-197374D01*
X-75408Y-197374D01*
X-74408Y-198374D01*
X-74408Y-202374D01*
X-75408Y-203374D01*
X-86408Y-203374D01*
X-88408Y-201374D01*
X-88408Y-199374D01*
G37*
G54D14*
X-88408Y-199374D02*
X-86408Y-197374D01*
X-75408Y-197374D01*
X-74408Y-198374D01*
X-74408Y-202374D01*
X-75408Y-203374D01*
X-86408Y-203374D01*
X-88408Y-201374D01*
X-88408Y-199374D01*
X-79908Y-192374D02*
G54D38*
D03*
X-79908Y-200374D02*
G54D38*
D03*
G36*
X-88408Y-207374D02*
X-86408Y-205374D01*
X-75408Y-205374D01*
X-74408Y-206374D01*
X-74408Y-210374D01*
X-75408Y-211374D01*
X-86408Y-211374D01*
X-88408Y-209374D01*
X-88408Y-207374D01*
G37*
G54D14*
X-88408Y-207374D02*
X-86408Y-205374D01*
X-75408Y-205374D01*
X-74408Y-206374D01*
X-74408Y-210374D01*
X-75408Y-211374D01*
X-86408Y-211374D01*
X-88408Y-209374D01*
X-88408Y-207374D01*
G36*
X-88408Y-215374D02*
X-86408Y-213374D01*
X-75408Y-213374D01*
X-74408Y-214374D01*
X-74408Y-218374D01*
X-75408Y-219374D01*
X-86408Y-219374D01*
X-88408Y-217374D01*
X-88408Y-215374D01*
G37*
G54D14*
X-88408Y-215374D02*
X-86408Y-213374D01*
X-75408Y-213374D01*
X-74408Y-214374D01*
X-74408Y-218374D01*
X-75408Y-219374D01*
X-86408Y-219374D01*
X-88408Y-217374D01*
X-88408Y-215374D01*
X-79908Y-208374D02*
G54D38*
D03*
X-79908Y-216374D02*
G54D38*
D03*
G36*
X-88408Y-223374D02*
X-86408Y-221374D01*
X-75408Y-221374D01*
X-74408Y-222374D01*
X-74408Y-226374D01*
X-75408Y-227374D01*
X-86408Y-227374D01*
X-88408Y-225374D01*
X-88408Y-223374D01*
G37*
G54D14*
X-88408Y-223374D02*
X-86408Y-221374D01*
X-75408Y-221374D01*
X-74408Y-222374D01*
X-74408Y-226374D01*
X-75408Y-227374D01*
X-86408Y-227374D01*
X-88408Y-225374D01*
X-88408Y-223374D01*
G36*
X-88408Y-231374D02*
X-86408Y-229374D01*
X-75408Y-229374D01*
X-74408Y-230374D01*
X-74408Y-234374D01*
X-75408Y-235374D01*
X-86408Y-235374D01*
X-88408Y-233374D01*
X-88408Y-231374D01*
G37*
G54D14*
X-88408Y-231374D02*
X-86408Y-229374D01*
X-75408Y-229374D01*
X-74408Y-230374D01*
X-74408Y-234374D01*
X-75408Y-235374D01*
X-86408Y-235374D01*
X-88408Y-233374D01*
X-88408Y-231374D01*
X-79908Y-224374D02*
G54D38*
D03*
X-79908Y-232374D02*
G54D38*
D03*
G36*
X-8408Y-153374D02*
X-6408Y-155374D01*
X-6408Y-166374D01*
X-7408Y-167374D01*
X-11408Y-167374D01*
X-12408Y-166374D01*
X-12408Y-155374D01*
X-10408Y-153374D01*
X-8408Y-153374D01*
G37*
G54D14*
X-8408Y-153374D02*
X-6408Y-155374D01*
X-6408Y-166374D01*
X-7408Y-167374D01*
X-11408Y-167374D01*
X-12408Y-166374D01*
X-12408Y-155374D01*
X-10408Y-153374D01*
X-8408Y-153374D01*
G36*
X-16408Y-153374D02*
X-14408Y-155374D01*
X-14408Y-166374D01*
X-15408Y-167374D01*
X-19408Y-167374D01*
X-20408Y-166374D01*
X-20408Y-155374D01*
X-18408Y-153374D01*
X-16408Y-153374D01*
G37*
G54D14*
X-16408Y-153374D02*
X-14408Y-155374D01*
X-14408Y-166374D01*
X-15408Y-167374D01*
X-19408Y-167374D01*
X-20408Y-166374D01*
X-20408Y-155374D01*
X-18408Y-153374D01*
X-16408Y-153374D01*
X-9408Y-161874D02*
G54D38*
D03*
X-17408Y-161874D02*
G54D38*
D03*
G36*
X-24408Y-153374D02*
X-22408Y-155374D01*
X-22408Y-166374D01*
X-23408Y-167374D01*
X-27408Y-167374D01*
X-28408Y-166374D01*
X-28408Y-155374D01*
X-26408Y-153374D01*
X-24408Y-153374D01*
G37*
G54D14*
X-24408Y-153374D02*
X-22408Y-155374D01*
X-22408Y-166374D01*
X-23408Y-167374D01*
X-27408Y-167374D01*
X-28408Y-166374D01*
X-28408Y-155374D01*
X-26408Y-153374D01*
X-24408Y-153374D01*
G36*
X-32408Y-153374D02*
X-30408Y-155374D01*
X-30408Y-166374D01*
X-31408Y-167374D01*
X-35408Y-167374D01*
X-36408Y-166374D01*
X-36408Y-155374D01*
X-34408Y-153374D01*
X-32408Y-153374D01*
G37*
G54D14*
X-32408Y-153374D02*
X-30408Y-155374D01*
X-30408Y-166374D01*
X-31408Y-167374D01*
X-35408Y-167374D01*
X-36408Y-166374D01*
X-36408Y-155374D01*
X-34408Y-153374D01*
X-32408Y-153374D01*
X-25408Y-161874D02*
G54D38*
D03*
X-33408Y-161874D02*
G54D38*
D03*
G36*
X-40408Y-153374D02*
X-38408Y-155374D01*
X-38408Y-166374D01*
X-39408Y-167374D01*
X-43408Y-167374D01*
X-44408Y-166374D01*
X-44408Y-155374D01*
X-42408Y-153374D01*
X-40408Y-153374D01*
G37*
G54D14*
X-40408Y-153374D02*
X-38408Y-155374D01*
X-38408Y-166374D01*
X-39408Y-167374D01*
X-43408Y-167374D01*
X-44408Y-166374D01*
X-44408Y-155374D01*
X-42408Y-153374D01*
X-40408Y-153374D01*
G36*
X-48408Y-153374D02*
X-46408Y-155374D01*
X-46408Y-166374D01*
X-47408Y-167374D01*
X-51408Y-167374D01*
X-52408Y-166374D01*
X-52408Y-155374D01*
X-50408Y-153374D01*
X-48408Y-153374D01*
G37*
G54D14*
X-48408Y-153374D02*
X-46408Y-155374D01*
X-46408Y-166374D01*
X-47408Y-167374D01*
X-51408Y-167374D01*
X-52408Y-166374D01*
X-52408Y-155374D01*
X-50408Y-153374D01*
X-48408Y-153374D01*
X-41408Y-161874D02*
G54D38*
D03*
X-49408Y-161874D02*
G54D38*
D03*
G36*
X-56408Y-153374D02*
X-54408Y-155374D01*
X-54408Y-166374D01*
X-55408Y-167374D01*
X-59408Y-167374D01*
X-60408Y-166374D01*
X-60408Y-155374D01*
X-58408Y-153374D01*
X-56408Y-153374D01*
G37*
G54D14*
X-56408Y-153374D02*
X-54408Y-155374D01*
X-54408Y-166374D01*
X-55408Y-167374D01*
X-59408Y-167374D01*
X-60408Y-166374D01*
X-60408Y-155374D01*
X-58408Y-153374D01*
X-56408Y-153374D01*
G36*
X-64408Y-153374D02*
X-62408Y-155374D01*
X-62408Y-166374D01*
X-63408Y-167374D01*
X-67408Y-167374D01*
X-68408Y-166374D01*
X-68408Y-155374D01*
X-66408Y-153374D01*
X-64408Y-153374D01*
G37*
G54D14*
X-64408Y-153374D02*
X-62408Y-155374D01*
X-62408Y-166374D01*
X-63408Y-167374D01*
X-67408Y-167374D01*
X-68408Y-166374D01*
X-68408Y-155374D01*
X-66408Y-153374D01*
X-64408Y-153374D01*
X-57408Y-161874D02*
G54D38*
D03*
X-65408Y-161874D02*
G54D38*
D03*
G36*
X13592Y-233374D02*
X11592Y-235374D01*
X592Y-235374D01*
X-408Y-234374D01*
X-408Y-230374D01*
X592Y-229374D01*
X11592Y-229374D01*
X13592Y-231374D01*
X13592Y-233374D01*
G37*
G54D14*
X13592Y-233374D02*
X11592Y-235374D01*
X592Y-235374D01*
X-408Y-234374D01*
X-408Y-230374D01*
X592Y-229374D01*
X11592Y-229374D01*
X13592Y-231374D01*
X13592Y-233374D01*
G36*
X13592Y-225374D02*
X11592Y-227374D01*
X592Y-227374D01*
X-408Y-226374D01*
X-408Y-222374D01*
X592Y-221374D01*
X11592Y-221374D01*
X13592Y-223374D01*
X13592Y-225374D01*
G37*
G54D14*
X13592Y-225374D02*
X11592Y-227374D01*
X592Y-227374D01*
X-408Y-226374D01*
X-408Y-222374D01*
X592Y-221374D01*
X11592Y-221374D01*
X13592Y-223374D01*
X13592Y-225374D01*
X5092Y-232374D02*
G54D38*
D03*
X5092Y-224374D02*
G54D38*
D03*
G36*
X13592Y-217374D02*
X11592Y-219374D01*
X592Y-219374D01*
X-408Y-218374D01*
X-408Y-214374D01*
X592Y-213374D01*
X11592Y-213374D01*
X13592Y-215374D01*
X13592Y-217374D01*
G37*
G54D14*
X13592Y-217374D02*
X11592Y-219374D01*
X592Y-219374D01*
X-408Y-218374D01*
X-408Y-214374D01*
X592Y-213374D01*
X11592Y-213374D01*
X13592Y-215374D01*
X13592Y-217374D01*
G36*
X13592Y-209374D02*
X11592Y-211374D01*
X592Y-211374D01*
X-408Y-210374D01*
X-408Y-206374D01*
X592Y-205374D01*
X11592Y-205374D01*
X13592Y-207374D01*
X13592Y-209374D01*
G37*
G54D14*
X13592Y-209374D02*
X11592Y-211374D01*
X592Y-211374D01*
X-408Y-210374D01*
X-408Y-206374D01*
X592Y-205374D01*
X11592Y-205374D01*
X13592Y-207374D01*
X13592Y-209374D01*
X5092Y-216374D02*
G54D38*
D03*
X5092Y-208374D02*
G54D38*
D03*
G36*
X13592Y-201374D02*
X11592Y-203374D01*
X592Y-203374D01*
X-408Y-202374D01*
X-408Y-198374D01*
X592Y-197374D01*
X11592Y-197374D01*
X13592Y-199374D01*
X13592Y-201374D01*
G37*
G54D14*
X13592Y-201374D02*
X11592Y-203374D01*
X592Y-203374D01*
X-408Y-202374D01*
X-408Y-198374D01*
X592Y-197374D01*
X11592Y-197374D01*
X13592Y-199374D01*
X13592Y-201374D01*
G36*
X13592Y-193374D02*
X11592Y-195374D01*
X592Y-195374D01*
X-408Y-194374D01*
X-408Y-190374D01*
X592Y-189374D01*
X11592Y-189374D01*
X13592Y-191374D01*
X13592Y-193374D01*
G37*
G54D14*
X13592Y-193374D02*
X11592Y-195374D01*
X592Y-195374D01*
X-408Y-194374D01*
X-408Y-190374D01*
X592Y-189374D01*
X11592Y-189374D01*
X13592Y-191374D01*
X13592Y-193374D01*
X5092Y-200374D02*
G54D38*
D03*
X5092Y-192374D02*
G54D38*
D03*
G36*
X13592Y-185374D02*
X11592Y-187374D01*
X592Y-187374D01*
X-408Y-186374D01*
X-408Y-182374D01*
X592Y-181374D01*
X11592Y-181374D01*
X13592Y-183374D01*
X13592Y-185374D01*
G37*
G54D14*
X13592Y-185374D02*
X11592Y-187374D01*
X592Y-187374D01*
X-408Y-186374D01*
X-408Y-182374D01*
X592Y-181374D01*
X11592Y-181374D01*
X13592Y-183374D01*
X13592Y-185374D01*
G36*
X13592Y-177374D02*
X11592Y-179374D01*
X592Y-179374D01*
X-408Y-178374D01*
X-408Y-174374D01*
X592Y-173374D01*
X11592Y-173374D01*
X13592Y-175374D01*
X13592Y-177374D01*
G37*
G54D14*
X13592Y-177374D02*
X11592Y-179374D01*
X592Y-179374D01*
X-408Y-178374D01*
X-408Y-174374D01*
X592Y-173374D01*
X11592Y-173374D01*
X13592Y-175374D01*
X13592Y-177374D01*
X5092Y-184374D02*
G54D38*
D03*
X5092Y-176374D02*
G54D38*
D03*
G36*
X-66408Y-255374D02*
X-68408Y-253374D01*
X-68408Y-242374D01*
X-67408Y-241374D01*
X-63408Y-241374D01*
X-62408Y-242374D01*
X-62408Y-253374D01*
X-64408Y-255374D01*
X-66408Y-255374D01*
G37*
G54D14*
X-66408Y-255374D02*
X-68408Y-253374D01*
X-68408Y-242374D01*
X-67408Y-241374D01*
X-63408Y-241374D01*
X-62408Y-242374D01*
X-62408Y-253374D01*
X-64408Y-255374D01*
X-66408Y-255374D01*
G36*
X-58408Y-255374D02*
X-60408Y-253374D01*
X-60408Y-242374D01*
X-59408Y-241374D01*
X-55408Y-241374D01*
X-54408Y-242374D01*
X-54408Y-253374D01*
X-56408Y-255374D01*
X-58408Y-255374D01*
G37*
G54D14*
X-58408Y-255374D02*
X-60408Y-253374D01*
X-60408Y-242374D01*
X-59408Y-241374D01*
X-55408Y-241374D01*
X-54408Y-242374D01*
X-54408Y-253374D01*
X-56408Y-255374D01*
X-58408Y-255374D01*
X-65408Y-246874D02*
G54D38*
D03*
X-57408Y-246874D02*
G54D38*
D03*
G36*
X-50408Y-255374D02*
X-52408Y-253374D01*
X-52408Y-242374D01*
X-51408Y-241374D01*
X-47408Y-241374D01*
X-46408Y-242374D01*
X-46408Y-253374D01*
X-48408Y-255374D01*
X-50408Y-255374D01*
G37*
G54D14*
X-50408Y-255374D02*
X-52408Y-253374D01*
X-52408Y-242374D01*
X-51408Y-241374D01*
X-47408Y-241374D01*
X-46408Y-242374D01*
X-46408Y-253374D01*
X-48408Y-255374D01*
X-50408Y-255374D01*
G36*
X-42408Y-255374D02*
X-44408Y-253374D01*
X-44408Y-242374D01*
X-43408Y-241374D01*
X-39408Y-241374D01*
X-38408Y-242374D01*
X-38408Y-253374D01*
X-40408Y-255374D01*
X-42408Y-255374D01*
G37*
G54D14*
X-42408Y-255374D02*
X-44408Y-253374D01*
X-44408Y-242374D01*
X-43408Y-241374D01*
X-39408Y-241374D01*
X-38408Y-242374D01*
X-38408Y-253374D01*
X-40408Y-255374D01*
X-42408Y-255374D01*
X-49408Y-246874D02*
G54D38*
D03*
X-41408Y-246874D02*
G54D38*
D03*
G36*
X-34408Y-255374D02*
X-36408Y-253374D01*
X-36408Y-242374D01*
X-35408Y-241374D01*
X-31408Y-241374D01*
X-30408Y-242374D01*
X-30408Y-253374D01*
X-32408Y-255374D01*
X-34408Y-255374D01*
G37*
G54D14*
X-34408Y-255374D02*
X-36408Y-253374D01*
X-36408Y-242374D01*
X-35408Y-241374D01*
X-31408Y-241374D01*
X-30408Y-242374D01*
X-30408Y-253374D01*
X-32408Y-255374D01*
X-34408Y-255374D01*
G36*
X-26408Y-255374D02*
X-28408Y-253374D01*
X-28408Y-242374D01*
X-27408Y-241374D01*
X-23408Y-241374D01*
X-22408Y-242374D01*
X-22408Y-253374D01*
X-24408Y-255374D01*
X-26408Y-255374D01*
G37*
G54D14*
X-26408Y-255374D02*
X-28408Y-253374D01*
X-28408Y-242374D01*
X-27408Y-241374D01*
X-23408Y-241374D01*
X-22408Y-242374D01*
X-22408Y-253374D01*
X-24408Y-255374D01*
X-26408Y-255374D01*
X-33408Y-246874D02*
G54D38*
D03*
X-25408Y-246874D02*
G54D38*
D03*
G36*
X-18408Y-255374D02*
X-20408Y-253374D01*
X-20408Y-242374D01*
X-19408Y-241374D01*
X-15408Y-241374D01*
X-14408Y-242374D01*
X-14408Y-253374D01*
X-16408Y-255374D01*
X-18408Y-255374D01*
G37*
G54D14*
X-18408Y-255374D02*
X-20408Y-253374D01*
X-20408Y-242374D01*
X-19408Y-241374D01*
X-15408Y-241374D01*
X-14408Y-242374D01*
X-14408Y-253374D01*
X-16408Y-255374D01*
X-18408Y-255374D01*
G36*
X-10408Y-255374D02*
X-12408Y-253374D01*
X-12408Y-242374D01*
X-11408Y-241374D01*
X-7408Y-241374D01*
X-6408Y-242374D01*
X-6408Y-253374D01*
X-8408Y-255374D01*
X-10408Y-255374D01*
G37*
G54D14*
X-10408Y-255374D02*
X-12408Y-253374D01*
X-12408Y-242374D01*
X-11408Y-241374D01*
X-7408Y-241374D01*
X-6408Y-242374D01*
X-6408Y-253374D01*
X-8408Y-255374D01*
X-10408Y-255374D01*
X-17408Y-246874D02*
G54D38*
D03*
X-9408Y-246874D02*
G54D38*
D03*
G54D34*
X-112712Y-238125D02*
X-98962Y-224374D01*
X-79908Y-224374D01*
G54D12*
X-91500Y-171686D02*
X-88088Y-168275D01*
X-74612Y-168275D01*
X-67463Y-176213D01*
G54D12*
X59170Y-216156D02*
X59170Y-224006D01*
X41190Y-241996D01*
X1932Y-241996D01*
G54D12*
X-11005Y-237016D02*
X-3048Y-237016D01*
X1932Y-241996D01*
X-128656Y-452481D02*
G54D39*
D03*
X-103256Y-452481D02*
G54D39*
D03*
X-79443Y-452481D02*
G54D39*
D03*
X-52456Y-452481D02*
G54D39*
D03*
X-27056Y-452481D02*
G54D39*
D03*
X128519Y-452481D02*
G54D39*
D03*
X103119Y-452481D02*
G54D39*
D03*
X79307Y-452481D02*
G54D39*
D03*
X55494Y-452481D02*
G54D39*
D03*
X30094Y-452481D02*
G54D39*
D03*
G54D12*
X-140966Y-452491D02*
X-128666Y-452491D01*
X-128656Y-452481D01*
G54D12*
X-115956Y-452481D02*
X-103256Y-452481D01*
G54D12*
X-90956Y-452481D02*
X-79443Y-452481D01*
G54D12*
X-65966Y-452491D02*
X-52466Y-452491D01*
X-52456Y-452481D01*
G54D12*
X-39956Y-452481D02*
X-27056Y-452481D01*
G54D12*
X140024Y-452481D02*
X128519Y-452481D01*
G54D12*
X115034Y-452481D02*
X103119Y-452481D01*
G54D12*
X92044Y-452481D02*
X79307Y-452481D01*
G54D12*
X68014Y-452481D02*
X55494Y-452481D01*
G54D12*
X43024Y-452481D02*
X30094Y-452481D01*
X53975Y-109538D02*
G54D33*
D03*
G54D12*
X34925Y-109538D02*
X53975Y-109538D01*
X68262Y-80962D02*
G54D33*
D03*
M02*
