%FSLAX34Y34*%
%MOMM*%
%LNSMDMASK_TOP*%
G71*
G01*
%ADD10R, 1.55X1.00*%
%ADD11R, 1.00X1.55*%
%ADD12R, 1.45X1.16*%
%ADD13R, 1.63X3.25*%
%ADD14R, 6.60X7.11*%
%ADD15R, 1.16X1.45*%
%ADD16R, 0.90X2.50*%
%ADD17R, 0.80X0.90*%
%ADD18R, 0.90X0.80*%
%ADD19R, 0.50X0.50*%
%LPD*%
X63180Y-280996D02*
G54D10*
D03*
X63180Y-260996D02*
G54D10*
D03*
X27170Y-303996D02*
G54D10*
D03*
X27170Y-283996D02*
G54D10*
D03*
X130180Y-326006D02*
G54D10*
D03*
X130180Y-346006D02*
G54D10*
D03*
X-108830Y-294996D02*
G54D11*
D03*
X-88830Y-294996D02*
G54D11*
D03*
X-65830Y-294996D02*
G54D11*
D03*
X-45830Y-294996D02*
G54D11*
D03*
X160180Y-294996D02*
G54D11*
D03*
X140180Y-294996D02*
G54D11*
D03*
X59170Y-195836D02*
G54D12*
D03*
X59170Y-216156D02*
G54D12*
D03*
X81170Y-50156D02*
G54D12*
D03*
X81170Y-29836D02*
G54D12*
D03*
X-152830Y-152166D02*
G54D12*
D03*
X-152830Y-131846D02*
G54D12*
D03*
X-8830Y-101846D02*
G54D12*
D03*
X-8830Y-122166D02*
G54D12*
D03*
X-72830Y-120156D02*
G54D12*
D03*
X-72830Y-99836D02*
G54D12*
D03*
X165540Y-173246D02*
G54D13*
D03*
X118810Y-173246D02*
G54D13*
D03*
X142170Y-236746D02*
G54D14*
D03*
X34170Y-216156D02*
G54D12*
D03*
X34170Y-195836D02*
G54D12*
D03*
X-177990Y-379996D02*
G54D15*
D03*
X-157670Y-379996D02*
G54D15*
D03*
X161010Y-379006D02*
G54D15*
D03*
X181330Y-379006D02*
G54D15*
D03*
X136170Y-369836D02*
G54D12*
D03*
X136170Y-390156D02*
G54D12*
D03*
X106170Y-369836D02*
G54D12*
D03*
X106170Y-390156D02*
G54D12*
D03*
X-40830Y-371836D02*
G54D12*
D03*
X-40830Y-392156D02*
G54D12*
D03*
X19170Y-372846D02*
G54D12*
D03*
X19170Y-393166D02*
G54D12*
D03*
X-41670Y-340996D02*
G54D15*
D03*
X-61990Y-340996D02*
G54D15*
D03*
X-10830Y-371836D02*
G54D12*
D03*
X-10830Y-392156D02*
G54D12*
D03*
X58170Y-317836D02*
G54D12*
D03*
X58170Y-338156D02*
G54D12*
D03*
X-120820Y-370836D02*
G54D12*
D03*
X-120820Y-391156D02*
G54D12*
D03*
X-165990Y-314996D02*
G54D15*
D03*
X-145670Y-314996D02*
G54D15*
D03*
X-161990Y-186996D02*
G54D15*
D03*
X-141670Y-186996D02*
G54D15*
D03*
X-47830Y-99836D02*
G54D12*
D03*
X-47830Y-120156D02*
G54D12*
D03*
X-155830Y-242836D02*
G54D12*
D03*
X-155830Y-263156D02*
G54D12*
D03*
X-140966Y-452491D02*
G54D16*
D03*
X-115956Y-452481D02*
G54D16*
D03*
X-90956Y-452481D02*
G54D16*
D03*
X-65966Y-452491D02*
G54D16*
D03*
X-39956Y-452481D02*
G54D16*
D03*
X-13976Y-452481D02*
G54D16*
D03*
X18034Y-452481D02*
G54D16*
D03*
X43024Y-452481D02*
G54D16*
D03*
X92044Y-452481D02*
G54D16*
D03*
X68014Y-452481D02*
G54D16*
D03*
X115034Y-452481D02*
G54D16*
D03*
X140024Y-452481D02*
G54D16*
D03*
X180570Y-401586D02*
G54D17*
D03*
X160570Y-401586D02*
G54D17*
D03*
X170570Y-421586D02*
G54D17*
D03*
X144780Y-410596D02*
G54D17*
D03*
X124780Y-410596D02*
G54D17*
D03*
X134780Y-430596D02*
G54D17*
D03*
X108760Y-410596D02*
G54D17*
D03*
X88760Y-410596D02*
G54D17*
D03*
X98760Y-430596D02*
G54D17*
D03*
X40780Y-411586D02*
G54D17*
D03*
X20780Y-411586D02*
G54D17*
D03*
X30780Y-431586D02*
G54D17*
D03*
X450Y-411906D02*
G54D17*
D03*
X-19550Y-411906D02*
G54D17*
D03*
X-9550Y-431906D02*
G54D17*
D03*
X-39830Y-413416D02*
G54D17*
D03*
X-59830Y-413416D02*
G54D17*
D03*
X-49830Y-433416D02*
G54D17*
D03*
X-120820Y-413416D02*
G54D17*
D03*
X-140820Y-413416D02*
G54D17*
D03*
X-130820Y-433416D02*
G54D17*
D03*
X-157410Y-404416D02*
G54D17*
D03*
X-177410Y-404416D02*
G54D17*
D03*
X-167410Y-424416D02*
G54D17*
D03*
X-62830Y-367406D02*
G54D17*
D03*
X-82830Y-367406D02*
G54D17*
D03*
X-72830Y-387406D02*
G54D17*
D03*
X64170Y-365426D02*
G54D17*
D03*
X44170Y-365426D02*
G54D17*
D03*
X54170Y-385426D02*
G54D17*
D03*
X101680Y-345996D02*
G54D18*
D03*
X101680Y-325996D02*
G54D18*
D03*
X81680Y-335996D02*
G54D18*
D03*
X87670Y-281997D02*
G54D18*
D03*
X87670Y-301996D02*
G54D18*
D03*
X107670Y-291996D02*
G54D18*
D03*
X-2721Y-305527D02*
G54D18*
D03*
X-2721Y-285527D02*
G54D18*
D03*
X-22721Y-295527D02*
G54D18*
D03*
X-88320Y-320506D02*
G54D17*
D03*
X-108320Y-320506D02*
G54D17*
D03*
X-98320Y-340506D02*
G54D17*
D03*
X-79908Y-176374D02*
G54D19*
D03*
X-79908Y-184374D02*
G54D19*
D03*
X-79908Y-192374D02*
G54D19*
D03*
X-79908Y-200374D02*
G54D19*
D03*
X-79908Y-208374D02*
G54D19*
D03*
X-79908Y-216374D02*
G54D19*
D03*
X-79908Y-224374D02*
G54D19*
D03*
X-79908Y-232374D02*
G54D19*
D03*
X-9408Y-161874D02*
G54D19*
D03*
X-17408Y-161874D02*
G54D19*
D03*
X-25408Y-161874D02*
G54D19*
D03*
X-33408Y-161874D02*
G54D19*
D03*
X-41408Y-161874D02*
G54D19*
D03*
X-49408Y-161874D02*
G54D19*
D03*
X-57408Y-161874D02*
G54D19*
D03*
X-65408Y-161874D02*
G54D19*
D03*
X5092Y-232374D02*
G54D19*
D03*
X5092Y-224374D02*
G54D19*
D03*
X5092Y-216374D02*
G54D19*
D03*
X5092Y-208374D02*
G54D19*
D03*
X5092Y-200374D02*
G54D19*
D03*
X5092Y-192374D02*
G54D19*
D03*
X5092Y-184374D02*
G54D19*
D03*
X5092Y-176374D02*
G54D19*
D03*
X-65408Y-246874D02*
G54D19*
D03*
X-57408Y-246874D02*
G54D19*
D03*
X-49408Y-246874D02*
G54D19*
D03*
X-41408Y-246874D02*
G54D19*
D03*
X-33408Y-246874D02*
G54D19*
D03*
X-25408Y-246874D02*
G54D19*
D03*
X-17408Y-246874D02*
G54D19*
D03*
X-9408Y-246874D02*
G54D19*
D03*
M02*
