%FSLAX34Y34*%
%MOMM*%
%LNSILK_BOTTOM*%
G71*
G01*
%ADD10C, 0.25*%
%ADD11C, 0.13*%
%ADD12C, 0.15*%
%ADD13C, 0.30*%
%ADD14C, 0.00*%
%ADD15C, 0.15*%
%ADD16C, 0.22*%
%LPD*%
G54D10*
X-172990Y-155586D02*
X-175710Y-155586D01*
G54D10*
X-196720Y-155586D02*
X-199440Y-155586D01*
G54D10*
X-211220Y-327816D02*
X-211220Y-325096D01*
G54D10*
X-211220Y-304086D02*
X-211220Y-301366D01*
G54D10*
X-211220Y-203816D02*
X-211220Y-201096D01*
G54D10*
X-211220Y-180086D02*
X-211220Y-177366D01*
G54D10*
X128190Y-68606D02*
X144060Y-84476D01*
G54D10*
X168900Y-109316D02*
X184770Y-125186D01*
X196210Y-113736D01*
G54D10*
X213620Y-96326D02*
X223670Y-86286D01*
X223970Y-85976D01*
X229290Y-85976D01*
X227220Y-83916D01*
X226870Y-84266D01*
X218240Y-84266D01*
X168640Y-34666D01*
X168980Y-34336D01*
X168980Y-24946D01*
X167810Y-23776D01*
X167020Y-24566D01*
X167020Y-29636D01*
X156980Y-39676D01*
G54D10*
X139570Y-57086D02*
X128050Y-68606D01*
G54D10*
X65780Y-52756D02*
X65780Y-42596D01*
G54D10*
X70780Y-47586D02*
X60620Y-47586D01*
G54D10*
X-65210Y-22426D02*
X-65210Y-32586D01*
G54D10*
X-70220Y-27586D02*
X-60060Y-27586D01*
G54D10*
X-234710Y-300086D02*
X-234710Y-213086D01*
X-234710Y-205086D01*
X-164710Y-205086D01*
X-164710Y-300086D01*
X-234710Y-300086D01*
G54D11*
X210590Y-277776D02*
X210590Y-281586D01*
X202970Y-277776D01*
X202970Y-281586D01*
X202970Y-285396D01*
X210590Y-281586D01*
X210590Y-285396D01*
G54D11*
X200430Y-281586D02*
X213130Y-281586D01*
G54D10*
X215670Y-295586D02*
X215670Y-267586D01*
G54D10*
X229780Y-269276D02*
X229780Y-267586D01*
X183780Y-267586D01*
X183780Y-269276D01*
G54D10*
X229780Y-293906D02*
X229780Y-295586D01*
X183780Y-295586D01*
X183780Y-293906D01*
G54D12*
X188320Y-42416D02*
X193830Y-36906D01*
X195310Y-36186D01*
X196780Y-36186D01*
X198250Y-36906D01*
X198990Y-37636D01*
X199710Y-39116D01*
X199710Y-40586D01*
X198990Y-42056D01*
X193470Y-47576D01*
G54D12*
X202150Y-54016D02*
X200680Y-54016D01*
X199200Y-53306D01*
X197730Y-51826D01*
X197010Y-50356D01*
X197010Y-48886D01*
X197730Y-48166D01*
X198830Y-47786D01*
X199580Y-47786D01*
X200660Y-48146D01*
X203600Y-49616D01*
X204720Y-49976D01*
X205450Y-49996D01*
X206550Y-49616D01*
X207640Y-48526D01*
X207640Y-47056D01*
X206930Y-45576D01*
X205450Y-44106D01*
X203980Y-43386D01*
X202510Y-43386D01*
G54D12*
X207140Y-53876D02*
X210450Y-57186D01*
X211160Y-58656D01*
X211180Y-59386D01*
X210810Y-60486D01*
X210070Y-61226D01*
X208970Y-61596D01*
X208240Y-61586D01*
X206760Y-60866D01*
X203460Y-57556D01*
X211180Y-49836D01*
X214490Y-53136D01*
X215210Y-54616D01*
X215220Y-55346D01*
X214850Y-56446D01*
X213750Y-57536D01*
X212660Y-57916D01*
X211900Y-57916D01*
X210450Y-57186D01*
G54D10*
G75*
G01X-173102Y-155687D02*
G03X-176526Y-123108I-13118J15091D01*
G01*
G54D10*
G75*
G01X-195917Y-123103D02*
G03X-199342Y-155691I9697J-17493D01*
G01*
G54D10*
G75*
G01X-211310Y-327714D02*
G03X-178732Y-324290I15090J13118D01*
G01*
G54D10*
G75*
G01X-178727Y-304900D02*
G03X-211315Y-301475I-17493J-9696D01*
G01*
G54D10*
G75*
G01X-211310Y-203714D02*
G03X-178732Y-200290I15090J13118D01*
G01*
G54D10*
G75*
G01X-178727Y-180900D02*
G03X-211315Y-177474I-17493J-9696D01*
G01*
G54D10*
G75*
G01X246780Y-221996D02*
G03X246780Y-221996I-42000J0D01*
G01*
G54D13*
G75*
G01X75780Y-37596D02*
G03X75780Y-37596I-25000J0D01*
G01*
G54D13*
G75*
G01X-25220Y-37596D02*
G03X-25220Y-37596I-25000J0D01*
G01*
G36*
X34270Y-19646D02*
X67290Y-19646D01*
X66820Y-19166D01*
X66320Y-18696D01*
X65810Y-18236D01*
X65290Y-17796D01*
X64760Y-17366D01*
X64210Y-16956D01*
X63650Y-16566D01*
X63080Y-16186D01*
X62500Y-15826D01*
X61910Y-15486D01*
X61310Y-15156D01*
X60700Y-14856D01*
X60080Y-14566D01*
X59450Y-14296D01*
X58810Y-14046D01*
X58170Y-13816D01*
X57520Y-13606D01*
X56860Y-13416D01*
X56200Y-13246D01*
X55530Y-13086D01*
X54860Y-12956D01*
X54190Y-12846D01*
X53510Y-12756D01*
X52830Y-12686D01*
X52150Y-12636D01*
X51470Y-12596D01*
X50780Y-12586D01*
X50100Y-12596D01*
X49420Y-12636D01*
X48740Y-12686D01*
X48060Y-12756D01*
X47380Y-12846D01*
X46710Y-12956D01*
X46030Y-13086D01*
X45370Y-13246D01*
X44710Y-13416D01*
X44050Y-13606D01*
X43400Y-13816D01*
X42760Y-14046D01*
X42120Y-14296D01*
X41490Y-14566D01*
X40870Y-14856D01*
X40260Y-15156D01*
X39660Y-15486D01*
X39070Y-15826D01*
X38490Y-16186D01*
X37920Y-16566D01*
X37360Y-16956D01*
X36810Y-17366D01*
X36280Y-17796D01*
X35760Y-18236D01*
X35250Y-18696D01*
X34750Y-19166D01*
X34270Y-19646D01*
G37*
G54D14*
X34270Y-19646D02*
X67290Y-19646D01*
X66820Y-19166D01*
X66320Y-18696D01*
X65810Y-18236D01*
X65290Y-17796D01*
X64760Y-17366D01*
X64210Y-16956D01*
X63650Y-16566D01*
X63080Y-16186D01*
X62500Y-15826D01*
X61910Y-15486D01*
X61310Y-15156D01*
X60700Y-14856D01*
X60080Y-14566D01*
X59450Y-14296D01*
X58810Y-14046D01*
X58170Y-13816D01*
X57520Y-13606D01*
X56860Y-13416D01*
X56200Y-13246D01*
X55530Y-13086D01*
X54860Y-12956D01*
X54190Y-12846D01*
X53510Y-12756D01*
X52830Y-12686D01*
X52150Y-12636D01*
X51470Y-12596D01*
X50780Y-12586D01*
X50100Y-12596D01*
X49420Y-12636D01*
X48740Y-12686D01*
X48060Y-12756D01*
X47380Y-12846D01*
X46710Y-12956D01*
X46030Y-13086D01*
X45370Y-13246D01*
X44710Y-13416D01*
X44050Y-13606D01*
X43400Y-13816D01*
X42760Y-14046D01*
X42120Y-14296D01*
X41490Y-14566D01*
X40870Y-14856D01*
X40260Y-15156D01*
X39660Y-15486D01*
X39070Y-15826D01*
X38490Y-16186D01*
X37920Y-16566D01*
X37360Y-16956D01*
X36810Y-17366D01*
X36280Y-17796D01*
X35760Y-18236D01*
X35250Y-18696D01*
X34750Y-19166D01*
X34270Y-19646D01*
G36*
X-50900Y-62576D02*
X-50220Y-62586D01*
X-49530Y-62576D01*
X-48850Y-62546D01*
X-48170Y-62496D01*
X-47490Y-62426D01*
X-46810Y-62336D01*
X-46140Y-62226D01*
X-45470Y-62096D01*
X-44800Y-61936D01*
X-44140Y-61766D01*
X-43480Y-61576D01*
X-42830Y-61366D01*
X-42190Y-61136D01*
X-41550Y-60886D01*
X-40920Y-60616D01*
X-40300Y-60326D01*
X-39690Y-60026D01*
X-39090Y-59696D01*
X-38500Y-59356D01*
X-37920Y-58996D01*
X-37350Y-58616D01*
X-36790Y-58226D01*
X-36240Y-57816D01*
X-35710Y-57386D01*
X-35190Y-56946D01*
X-34680Y-56486D01*
X-34190Y-56016D01*
X-33710Y-55526D01*
X-66730Y-55526D01*
X-66250Y-56016D01*
X-65750Y-56486D01*
X-65240Y-56946D01*
X-64720Y-57386D01*
X-64190Y-57816D01*
X-63640Y-58226D01*
X-63080Y-58616D01*
X-62510Y-58996D01*
X-61930Y-59356D01*
X-61340Y-59696D01*
X-60740Y-60026D01*
X-60130Y-60326D01*
X-59510Y-60616D01*
X-58880Y-60886D01*
X-58240Y-61136D01*
X-57600Y-61366D01*
X-56950Y-61576D01*
X-56290Y-61766D01*
X-55630Y-61936D01*
X-54970Y-62096D01*
X-54290Y-62226D01*
X-53620Y-62336D01*
X-52940Y-62426D01*
X-52260Y-62496D01*
X-51580Y-62546D01*
X-50900Y-62576D01*
G37*
G54D14*
X-50900Y-62576D02*
X-50220Y-62586D01*
X-49530Y-62576D01*
X-48850Y-62546D01*
X-48170Y-62496D01*
X-47490Y-62426D01*
X-46810Y-62336D01*
X-46140Y-62226D01*
X-45470Y-62096D01*
X-44800Y-61936D01*
X-44140Y-61766D01*
X-43480Y-61576D01*
X-42830Y-61366D01*
X-42190Y-61136D01*
X-41550Y-60886D01*
X-40920Y-60616D01*
X-40300Y-60326D01*
X-39690Y-60026D01*
X-39090Y-59696D01*
X-38500Y-59356D01*
X-37920Y-58996D01*
X-37350Y-58616D01*
X-36790Y-58226D01*
X-36240Y-57816D01*
X-35710Y-57386D01*
X-35190Y-56946D01*
X-34680Y-56486D01*
X-34190Y-56016D01*
X-33710Y-55526D01*
X-66730Y-55526D01*
X-66250Y-56016D01*
X-65750Y-56486D01*
X-65240Y-56946D01*
X-64720Y-57386D01*
X-64190Y-57816D01*
X-63640Y-58226D01*
X-63080Y-58616D01*
X-62510Y-58996D01*
X-61930Y-59356D01*
X-61340Y-59696D01*
X-60740Y-60026D01*
X-60130Y-60326D01*
X-59510Y-60616D01*
X-58880Y-60886D01*
X-58240Y-61136D01*
X-57600Y-61366D01*
X-56950Y-61576D01*
X-56290Y-61766D01*
X-55630Y-61936D01*
X-54970Y-62096D01*
X-54290Y-62226D01*
X-53620Y-62336D01*
X-52940Y-62426D01*
X-52260Y-62496D01*
X-51580Y-62546D01*
X-50900Y-62576D01*
G54D15*
X210380Y-322296D02*
X202780Y-322296D01*
G54D15*
X206580Y-326096D02*
X206580Y-318496D01*
G54D15*
G75*
G01X225625Y-334996D02*
G03X225625Y-334996I-31450J0D01*
G01*
G54D16*
X97187Y-116079D02*
X114965Y-116079D01*
X114965Y-109412D01*
X113854Y-106746D01*
X111632Y-105412D01*
X109409Y-105412D01*
X107187Y-106746D01*
X106076Y-109412D01*
X104965Y-106746D01*
X102742Y-105412D01*
X100520Y-105412D01*
X98298Y-106746D01*
X97187Y-109412D01*
X97187Y-116079D01*
G54D16*
X106076Y-116079D02*
X106076Y-109412D01*
G54D16*
X106076Y-100523D02*
X107187Y-97856D01*
X107187Y-94656D01*
X104965Y-92523D01*
X97187Y-92523D01*
G54D16*
X100520Y-92523D02*
X102742Y-93856D01*
X103187Y-96523D01*
X102742Y-99190D01*
X100520Y-100523D01*
X98298Y-99990D01*
X97187Y-97856D01*
X97187Y-96523D01*
X97187Y-95990D01*
X98298Y-93856D01*
X100520Y-92523D01*
G54D16*
X114965Y-84967D02*
X98298Y-84967D01*
X97187Y-83634D01*
X97632Y-82300D01*
G54D16*
X107187Y-87634D02*
X107187Y-82300D01*
G54D16*
X87498Y-117449D02*
X87498Y-106782D01*
G54D16*
X91942Y-112116D02*
X83054Y-112116D01*
G54D16*
X87498Y-96737D02*
X87498Y-86070D01*
M02*
