%FSLAX34Y34*%
%MOMM*%
%LNSOLDERMASK_BOTTOM*%
G71*
G01*
%ADD10C, 1.60*%
%ADD11C, 2.12*%
%ADD12C, 2.40*%
%ADD13C, 2.60*%
%ADD14C, 2.80*%
%ADD15C, 2.20*%
%ADD16C, 0.20*%
%ADD17C, 2.25*%
%ADD18C, 2.40*%
%ADD19C, 2.20*%
%ADD20R, 1.10X2.70*%
%ADD21C, 1.21*%
%ADD22C, 2.24*%
%ADD23C, 1.50*%
%LPD*%
X55034Y-495991D02*
G54D10*
D03*
G36*
X-81962Y-486478D02*
X-97962Y-486478D01*
X-97962Y-470478D01*
X-81962Y-470478D01*
X-81962Y-486478D01*
G37*
G36*
X96038Y-486478D02*
X80038Y-486478D01*
X80038Y-470478D01*
X96038Y-470478D01*
X96038Y-486478D01*
G37*
X-91832Y-33998D02*
G54D11*
D03*
X111168Y-42998D02*
G54D11*
D03*
X204210Y-197036D02*
G54D12*
D03*
X-205320Y-230496D02*
G54D13*
D03*
X-205320Y-275506D02*
G54D13*
D03*
X-180330Y-217996D02*
G54D14*
D03*
X-180330Y-288006D02*
G54D14*
D03*
G54D15*
X203950Y-105086D02*
X148090Y-49226D01*
G36*
X161810Y-112936D02*
X172420Y-102326D01*
X169240Y-99146D01*
X158630Y-109756D01*
X161810Y-112936D01*
G37*
G54D16*
X161810Y-112936D02*
X172420Y-102326D01*
X169240Y-99146D01*
X158630Y-109756D01*
X161810Y-112936D01*
G36*
X157210Y-108336D02*
X167820Y-97736D01*
X164640Y-94546D01*
X154030Y-105156D01*
X157210Y-108336D01*
G37*
G54D16*
X157210Y-108336D02*
X167820Y-97736D01*
X164640Y-94546D01*
X154030Y-105156D01*
X157210Y-108336D01*
G36*
X152620Y-103736D02*
X163220Y-93136D01*
X160040Y-89956D01*
X149430Y-100556D01*
X152620Y-103736D01*
G37*
G54D16*
X152620Y-103736D02*
X163220Y-93136D01*
X160040Y-89956D01*
X149430Y-100556D01*
X152620Y-103736D01*
G36*
X148020Y-99146D02*
X158630Y-88536D01*
X155440Y-85356D01*
X144840Y-95956D01*
X148020Y-99146D01*
G37*
G54D16*
X148020Y-99146D02*
X158630Y-88536D01*
X155440Y-85356D01*
X144840Y-95956D01*
X148020Y-99146D01*
G36*
X143420Y-94546D02*
X154030Y-83936D01*
X150850Y-80756D01*
X140240Y-91366D01*
X143420Y-94546D01*
G37*
G54D16*
X143420Y-94546D02*
X154030Y-83936D01*
X150850Y-80756D01*
X140240Y-91366D01*
X143420Y-94546D01*
G36*
X189450Y-104726D02*
X204300Y-119576D01*
X218440Y-105436D01*
X203600Y-90586D01*
X189450Y-104726D01*
G37*
G54D16*
X189450Y-104726D02*
X204300Y-119576D01*
X218440Y-105436D01*
X203600Y-90586D01*
X189450Y-104726D01*
G36*
X133600Y-48876D02*
X148450Y-63726D01*
X162590Y-49576D01*
X147740Y-34726D01*
X133600Y-48876D01*
G37*
G54D16*
X133600Y-48876D02*
X148450Y-63726D01*
X162590Y-49576D01*
X147740Y-34726D01*
X133600Y-48876D01*
G36*
X173170Y-291996D02*
X193170Y-291996D01*
X193170Y-271996D01*
X173170Y-271996D01*
X173170Y-291996D01*
G37*
G54D16*
X173170Y-291996D02*
X193170Y-291996D01*
X193170Y-271996D01*
X173170Y-271996D01*
X173170Y-291996D01*
G36*
X219170Y-291996D02*
X239170Y-291996D01*
X239170Y-271996D01*
X219170Y-271996D01*
X219170Y-291996D01*
G37*
G54D16*
X219170Y-291996D02*
X239170Y-291996D01*
X239170Y-271996D01*
X219170Y-271996D01*
X219170Y-291996D01*
X-186830Y-128296D02*
G54D17*
D03*
X-186830Y-153696D02*
G54D17*
D03*
X-184130Y-314996D02*
G54D17*
D03*
X-209530Y-314996D02*
G54D17*
D03*
X-184130Y-190996D02*
G54D17*
D03*
X-209530Y-190996D02*
G54D17*
D03*
X204230Y-247846D02*
G54D18*
D03*
X50180Y-28000D02*
G54D19*
D03*
G36*
X-148466Y-440491D02*
X-133466Y-440491D01*
X-133466Y-464491D01*
X-148466Y-464491D01*
X-148466Y-440491D01*
G37*
X-140966Y-452491D02*
G54D20*
D03*
X-140966Y-452491D02*
G54D20*
D03*
X-140966Y-452491D02*
G54D20*
D03*
G36*
X-123456Y-440481D02*
X-108456Y-440481D01*
X-108456Y-464481D01*
X-123456Y-464481D01*
X-123456Y-440481D01*
G37*
X-115956Y-452481D02*
G54D20*
D03*
X-115956Y-452481D02*
G54D20*
D03*
X-115956Y-452481D02*
G54D20*
D03*
G36*
X-98456Y-440481D02*
X-83456Y-440481D01*
X-83456Y-464481D01*
X-98456Y-464481D01*
X-98456Y-440481D01*
G37*
X-90956Y-452481D02*
G54D20*
D03*
X-90956Y-452481D02*
G54D20*
D03*
X-90956Y-452481D02*
G54D20*
D03*
G36*
X-73466Y-440491D02*
X-58466Y-440491D01*
X-58466Y-464491D01*
X-73466Y-464491D01*
X-73466Y-440491D01*
G37*
X-65966Y-452491D02*
G54D20*
D03*
X-65966Y-452491D02*
G54D20*
D03*
X-65966Y-452491D02*
G54D20*
D03*
G36*
X-47456Y-440481D02*
X-32456Y-440481D01*
X-32456Y-464481D01*
X-47456Y-464481D01*
X-47456Y-440481D01*
G37*
X-39956Y-452481D02*
G54D20*
D03*
X-39956Y-452481D02*
G54D20*
D03*
X-39956Y-452481D02*
G54D20*
D03*
G36*
X-21476Y-440481D02*
X-6476Y-440481D01*
X-6476Y-464481D01*
X-21476Y-464481D01*
X-21476Y-440481D01*
G37*
X-13976Y-452481D02*
G54D20*
D03*
X-13976Y-452481D02*
G54D20*
D03*
X-13976Y-452481D02*
G54D20*
D03*
G36*
X10534Y-440481D02*
X25534Y-440481D01*
X25534Y-464481D01*
X10534Y-464481D01*
X10534Y-440481D01*
G37*
X18034Y-452481D02*
G54D20*
D03*
X18034Y-452481D02*
G54D20*
D03*
X18034Y-452481D02*
G54D20*
D03*
G36*
X35524Y-440481D02*
X50524Y-440481D01*
X50524Y-464481D01*
X35524Y-464481D01*
X35524Y-440481D01*
G37*
X43024Y-452481D02*
G54D20*
D03*
X43024Y-452481D02*
G54D20*
D03*
X43024Y-452481D02*
G54D20*
D03*
G36*
X84544Y-440481D02*
X99544Y-440481D01*
X99544Y-464481D01*
X84544Y-464481D01*
X84544Y-440481D01*
G37*
X92044Y-452481D02*
G54D20*
D03*
X92044Y-452481D02*
G54D20*
D03*
X92044Y-452481D02*
G54D20*
D03*
G36*
X60514Y-440481D02*
X75514Y-440481D01*
X75514Y-464481D01*
X60514Y-464481D01*
X60514Y-440481D01*
G37*
X68014Y-452481D02*
G54D20*
D03*
X68014Y-452481D02*
G54D20*
D03*
X68014Y-452481D02*
G54D20*
D03*
G36*
X107534Y-440481D02*
X122534Y-440481D01*
X122534Y-464481D01*
X107534Y-464481D01*
X107534Y-440481D01*
G37*
X115034Y-452481D02*
G54D20*
D03*
X115034Y-452481D02*
G54D20*
D03*
X115034Y-452481D02*
G54D20*
D03*
G36*
X132524Y-440481D02*
X147524Y-440481D01*
X147524Y-464481D01*
X132524Y-464481D01*
X132524Y-440481D01*
G37*
X140024Y-452481D02*
G54D20*
D03*
X140024Y-452481D02*
G54D20*
D03*
X140024Y-452481D02*
G54D20*
D03*
X4034Y-468666D02*
G54D21*
D03*
X-4966Y-504491D02*
G54D21*
D03*
X-40966Y-504491D02*
G54D21*
D03*
X-75966Y-504481D02*
G54D21*
D03*
X-94830Y-395006D02*
G54D21*
D03*
X-95560Y-362646D02*
G54D21*
D03*
X19170Y-362236D02*
G54D21*
D03*
X-23830Y-320006D02*
G54D21*
D03*
X-44830Y-320006D02*
G54D21*
D03*
X-76830Y-272006D02*
G54D21*
D03*
X-61830Y-270006D02*
G54D21*
D03*
X-40830Y-266006D02*
G54D21*
D03*
X4170Y-250006D02*
G54D21*
D03*
X-24018Y-184615D02*
G54D21*
D03*
X-53580Y-191615D02*
G54D21*
D03*
X59170Y-175006D02*
G54D21*
D03*
X140680Y-169246D02*
G54D21*
D03*
X176360Y-301656D02*
G54D21*
D03*
X126170Y-312006D02*
G54D21*
D03*
X73160Y-317996D02*
G54D21*
D03*
X87160Y-360986D02*
G54D21*
D03*
X122160Y-360986D02*
G54D21*
D03*
X76200Y-147638D02*
G54D21*
D03*
X-181830Y-102996D02*
G54D21*
D03*
X12700Y-104775D02*
G54D21*
D03*
X-130557Y-186996D02*
G54D21*
D03*
X-109060Y-308996D02*
G54D21*
D03*
X-68830Y-42006D02*
G54D21*
D03*
X69034Y-483491D02*
G54D10*
D03*
X107034Y-483481D02*
G54D10*
D03*
X121534Y-496491D02*
G54D10*
D03*
X127534Y-513791D02*
G54D10*
D03*
X125334Y-533181D02*
G54D10*
D03*
X114534Y-548891D02*
G54D10*
D03*
X98044Y-557181D02*
G54D10*
D03*
X78834Y-557481D02*
G54D10*
D03*
X61244Y-548391D02*
G54D10*
D03*
X50734Y-533081D02*
G54D10*
D03*
X48544Y-513881D02*
G54D10*
D03*
X-50466Y-513791D02*
G54D10*
D03*
X-56466Y-496491D02*
G54D10*
D03*
X-70966Y-483481D02*
G54D10*
D03*
X-108966Y-483481D02*
G54D10*
D03*
X-122966Y-495991D02*
G54D10*
D03*
X-129466Y-513881D02*
G54D10*
D03*
X-127266Y-533081D02*
G54D10*
D03*
X-116766Y-548391D02*
G54D10*
D03*
X-99166Y-557491D02*
G54D10*
D03*
X-79966Y-557181D02*
G54D10*
D03*
X-63466Y-548881D02*
G54D10*
D03*
X-52666Y-533181D02*
G54D10*
D03*
X-61912Y-217488D02*
G54D21*
D03*
X44170Y-428996D02*
G54D21*
D03*
X87033Y-428996D02*
G54D21*
D03*
X-18030Y-43594D02*
G54D21*
D03*
X50180Y-47996D02*
G54D19*
D03*
X-50830Y-47996D02*
G54D19*
D03*
X-50830Y-27996D02*
G54D19*
D03*
X181680Y-334996D02*
G54D22*
D03*
X206580Y-334996D02*
G54D22*
D03*
X-128656Y-452481D02*
G54D23*
D03*
X-103256Y-452481D02*
G54D23*
D03*
X-79443Y-452481D02*
G54D23*
D03*
X-52456Y-452481D02*
G54D23*
D03*
X-27056Y-452481D02*
G54D23*
D03*
X128519Y-452481D02*
G54D23*
D03*
X103119Y-452481D02*
G54D23*
D03*
X79307Y-452481D02*
G54D23*
D03*
X55494Y-452481D02*
G54D23*
D03*
X30094Y-452481D02*
G54D23*
D03*
G36*
X76665Y-118541D02*
X61425Y-118541D01*
X61425Y-103301D01*
X76665Y-103301D01*
X76665Y-118541D01*
G37*
G54D16*
X76665Y-118541D02*
X61425Y-118541D01*
X61425Y-103301D01*
X76665Y-103301D01*
X76665Y-118541D01*
X53975Y-109538D02*
G54D21*
D03*
G36*
X76665Y-99491D02*
X61425Y-99491D01*
X61425Y-84251D01*
X76665Y-84251D01*
X76665Y-99491D01*
G37*
G54D16*
X76665Y-99491D02*
X61425Y-99491D01*
X61425Y-84251D01*
X76665Y-84251D01*
X76665Y-99491D01*
X68262Y-80962D02*
G54D21*
D03*
M02*
