%FSLAX34Y34*%
%MOMM*%
%LNSMDMASK_BOTTOM*%
G71*
G01*
%ADD10R, 0.90X2.50*%
%LPD*%
X-140966Y-452491D02*
G54D10*
D03*
X-140966Y-452491D02*
G54D10*
D03*
X-140966Y-452491D02*
G54D10*
D03*
X-115956Y-452481D02*
G54D10*
D03*
X-115956Y-452481D02*
G54D10*
D03*
X-115956Y-452481D02*
G54D10*
D03*
X-90956Y-452481D02*
G54D10*
D03*
X-90956Y-452481D02*
G54D10*
D03*
X-90956Y-452481D02*
G54D10*
D03*
X-65966Y-452491D02*
G54D10*
D03*
X-65966Y-452491D02*
G54D10*
D03*
X-65966Y-452491D02*
G54D10*
D03*
X-39956Y-452481D02*
G54D10*
D03*
X-39956Y-452481D02*
G54D10*
D03*
X-39956Y-452481D02*
G54D10*
D03*
X-13976Y-452481D02*
G54D10*
D03*
X-13976Y-452481D02*
G54D10*
D03*
X-13976Y-452481D02*
G54D10*
D03*
X18034Y-452481D02*
G54D10*
D03*
X18034Y-452481D02*
G54D10*
D03*
X18034Y-452481D02*
G54D10*
D03*
X43024Y-452481D02*
G54D10*
D03*
X43024Y-452481D02*
G54D10*
D03*
X43024Y-452481D02*
G54D10*
D03*
X92044Y-452481D02*
G54D10*
D03*
X92044Y-452481D02*
G54D10*
D03*
X92044Y-452481D02*
G54D10*
D03*
X68014Y-452481D02*
G54D10*
D03*
X68014Y-452481D02*
G54D10*
D03*
X68014Y-452481D02*
G54D10*
D03*
X115034Y-452481D02*
G54D10*
D03*
X115034Y-452481D02*
G54D10*
D03*
X115034Y-452481D02*
G54D10*
D03*
X140024Y-452481D02*
G54D10*
D03*
X140024Y-452481D02*
G54D10*
D03*
X140024Y-452481D02*
G54D10*
D03*
M02*
