; Drill file
; Format: 2.4 (00.0000)
M48
INCH
T01C0.0157
T02C0.0197
T03C0.0276
T04C0.0283
T05C0.0315
T06C0.0394
T07C0.0433
T08C0.0472
%
G05
G90
T01
X-002990Y-019860
X-001610Y-019860
X-000200Y-019860
X000160Y-018450
X001740Y-016890
X003430Y-016890
X003430Y-014210
X004810Y-014210
X004970Y-012280
X006940Y-011880
X002880Y-012520
X000750Y-014260
X-000940Y-012600
X-001760Y-012600
X-002430Y-010630
X-003020Y-010710
X-001610Y-010470
X000160Y-009840
X-000950Y-007270
X-002110Y-007540
X-002440Y-008560
X-005140Y-007360
X-007160Y-004050
X-003620Y-001340
X-002710Y-001650
X-000710Y-001720
X000500Y-004120
X002120Y-004310
X002690Y-003190
X004380Y-001690
X003000Y-005810
X002330Y-006890
X005540Y-006660
X-004290Y-012170
X-003760Y-014280
X-003730Y-015550
T02
X-004600Y-021590
X-005010Y-020990
X-005100Y-020230
X-004840Y-019530
X-004290Y-019030
X-003540Y-018840
X-002790Y-019030
X-002220Y-019550
X-001990Y-020230
X-002070Y-020990
X-002500Y-021610
X-003150Y-021940
X-003900Y-021950
X002000Y-020990
X002410Y-021590
X003100Y-021950
X003860Y-021940
X004510Y-021610
X004930Y-020990
X005020Y-020230
X004780Y-019550
X004210Y-019030
X003470Y-018840
X002720Y-019040
X002170Y-019530
X001910Y-020230
T03
X-005550Y-017810
X-005070Y-017810
X-004570Y-017810
X-004070Y-017810
X-003580Y-017810
X-003130Y-017810
X-002600Y-017810
X-002070Y-017810
X-001570Y-017810
X-001070Y-017810
X-000550Y-017810
X000710Y-017810
X001180Y-017810
X001690Y-017810
X002180Y-017810
X002680Y-017810
X003120Y-017810
X003620Y-017810
X004060Y-017810
X004530Y-017810
X005060Y-017810
X005510Y-017810
T04
X007150Y-013190
X008130Y-013190
T05
X-008250Y-012400
X-007250Y-012400
X-007250Y-007520
X-008250Y-007520
X-007360Y-006050
X-007360Y-005050
X-002000Y-001890
X-002000Y-001100
X001980Y-001100
X001980Y-001890
T06
X-008080Y-010850
X-007100Y-011340
X-008080Y-009070
X-007100Y-008580
X008040Y-007760
T07
X008040Y-009760
T08
X005780Y-003080
X006890Y-004190
M30
