%FSLAX34Y34*%
%MOMM*%
%LNCOPPER_BOTTOM*%
G71*
G01*
%ADD10C, 1.00*%
%ADD11C, 0.25*%
%ADD12C, 0.16*%
%ADD13C, 0.00*%
%ADD14C, 1.52*%
%ADD15C, 1.80*%
%ADD16C, 2.00*%
%ADD17C, 2.20*%
%ADD18C, 0.50*%
%ADD19C, 0.26*%
%ADD20C, 2.00*%
%ADD21C, 1.65*%
%ADD22C, 1.80*%
%ADD23C, 1.60*%
%ADD24R, 0.90X2.50*%
%ADD25C, 0.61*%
%ADD26C, 1.64*%
%ADD27C, 0.30*%
%ADD28C, 0.90*%
%LPD*%
X55034Y-495991D02*
G54D10*
D03*
G54D11*
X55184Y-554841D02*
X-56926Y-554841D01*
G54D11*
X-54696Y-550121D02*
X51054Y-550121D01*
G54D11*
X54504Y-554121D02*
X-56336Y-554121D01*
G54D11*
X-53886Y-550121D02*
X-53886Y-554841D01*
G54D11*
X-48806Y-550121D02*
X-48806Y-554841D01*
G54D11*
X-43726Y-550121D02*
X-43726Y-554841D01*
G54D11*
X-38646Y-550121D02*
X-38646Y-554841D01*
G54D11*
X-33566Y-550121D02*
X-33566Y-554841D01*
G54D11*
X-28486Y-550121D02*
X-28486Y-554841D01*
G54D11*
X-23406Y-550121D02*
X-23406Y-554841D01*
G54D11*
X-18326Y-550121D02*
X-18326Y-554841D01*
G54D11*
X-13246Y-550121D02*
X-13246Y-554841D01*
G54D11*
X-8166Y-550121D02*
X-8166Y-554841D01*
G54D11*
X-3086Y-550121D02*
X-3086Y-554841D01*
G54D11*
X1994Y-550121D02*
X1994Y-554841D01*
G54D11*
X7074Y-550121D02*
X7074Y-554841D01*
G54D11*
X12154Y-550121D02*
X12154Y-554841D01*
G54D11*
X17234Y-550121D02*
X17234Y-554841D01*
G54D11*
X22314Y-550121D02*
X22314Y-554841D01*
G54D11*
X27394Y-550121D02*
X27394Y-554841D01*
G54D11*
X32474Y-550121D02*
X32474Y-554841D01*
G54D11*
X37554Y-550121D02*
X37554Y-554841D01*
G54D11*
X42634Y-550121D02*
X42634Y-554841D01*
G54D11*
X47714Y-550121D02*
X47714Y-554841D01*
G54D11*
X52794Y-551041D02*
X52794Y-554841D01*
G54D11*
X1064Y-501121D02*
X2314Y-501121D01*
X8874Y-507691D01*
G54D11*
X12164Y-509051D02*
X41134Y-509051D01*
G54D11*
X41204Y-518841D02*
X-38836Y-518841D01*
X-41856Y-515821D01*
G54D11*
X-35866Y-509131D02*
X-10056Y-509131D01*
G54D11*
X4514Y-503321D02*
X1834Y-503321D01*
G54D11*
X9804Y-508401D02*
X714Y-508401D01*
G54D11*
X39704Y-513481D02*
X-41616Y-513481D01*
G54D11*
X41034Y-518561D02*
X-39106Y-518561D01*
G54D11*
X-38646Y-510981D02*
X-38646Y-518841D01*
G54D11*
X-33566Y-509131D02*
X-33566Y-518841D01*
G54D11*
X-28486Y-509131D02*
X-28486Y-518841D01*
G54D11*
X-23406Y-509131D02*
X-23406Y-518841D01*
G54D11*
X-18326Y-509131D02*
X-18326Y-518841D01*
G54D11*
X-13246Y-509131D02*
X-13246Y-518841D01*
G54D11*
X-8166Y-510591D02*
X-8166Y-518841D01*
G54D11*
X-3086Y-511121D02*
X-3086Y-518841D01*
G54D11*
X1994Y-501121D02*
X1994Y-518841D01*
G54D11*
X7074Y-505891D02*
X7074Y-518841D01*
G54D11*
X12154Y-509051D02*
X12154Y-518841D01*
G54D11*
X17234Y-509051D02*
X17234Y-518841D01*
G54D11*
X22314Y-509051D02*
X22314Y-518841D01*
G54D11*
X27394Y-509051D02*
X27394Y-518841D01*
G54D11*
X32474Y-509051D02*
X32474Y-518841D01*
G54D11*
X37554Y-509051D02*
X37554Y-518841D01*
G54D11*
X63624Y-498141D02*
X64244Y-498771D01*
G54D11*
X65694Y-499751D02*
X63044Y-499751D01*
G54D11*
X63724Y-498241D02*
X63594Y-498241D01*
G54D11*
X-66266Y-498771D02*
X-65226Y-497731D01*
G54D11*
X-48926Y-501121D02*
X-46986Y-501121D01*
G54D11*
X-48426Y-522401D02*
X-44046Y-526771D01*
G54D11*
X-40756Y-528131D02*
X43404Y-528131D01*
G54D11*
X46454Y-540821D02*
X-48196Y-540821D01*
G54D11*
X-57126Y-540821D02*
X-59806Y-540821D01*
G54D11*
X-61646Y-540221D02*
X-71316Y-530561D01*
X-71316Y-509581D01*
G54D11*
X-70616Y-500131D02*
X-69546Y-500131D01*
G54D11*
X-65136Y-498241D02*
X-65736Y-498241D01*
G54D11*
X-47756Y-503321D02*
X-50846Y-503321D01*
G54D11*
X-62076Y-503321D02*
X-69166Y-503321D01*
G54D11*
X-57486Y-508401D02*
X-70286Y-508401D01*
G54D11*
X-59306Y-513481D02*
X-71316Y-513481D01*
G54D11*
X-57906Y-518561D02*
X-71316Y-518561D01*
G54D11*
X-47176Y-523641D02*
X-71316Y-523641D01*
G54D11*
X43044Y-528721D02*
X-45016Y-528721D01*
G54D11*
X-60306Y-528721D02*
X-71316Y-528721D01*
G54D11*
X41924Y-533801D02*
X-43836Y-533801D01*
G54D11*
X-61486Y-533801D02*
X-68066Y-533801D01*
G54D11*
X44054Y-538881D02*
X-45896Y-538881D01*
G54D11*
X-59426Y-538881D02*
X-62986Y-538881D01*
G54D11*
X-69126Y-500111D02*
X-69126Y-503601D01*
G54D11*
X-69126Y-505361D02*
X-69126Y-532751D01*
G54D11*
X-64046Y-501051D02*
X-64046Y-537831D01*
G54D11*
X-58966Y-504971D02*
X-58966Y-511331D01*
G54D11*
X-58966Y-516241D02*
X-58966Y-526971D01*
G54D11*
X-58966Y-539401D02*
X-58966Y-540821D01*
G54D11*
X-53886Y-504951D02*
X-53886Y-505631D01*
G54D11*
X-53886Y-521951D02*
X-53886Y-524421D01*
G54D11*
X-48806Y-501121D02*
X-48806Y-505091D01*
G54D11*
X-48806Y-522481D02*
X-48806Y-525221D01*
G54D11*
X-43726Y-527071D02*
X-43726Y-540821D01*
G54D11*
X-38646Y-528131D02*
X-38646Y-540821D01*
G54D11*
X-33566Y-528131D02*
X-33566Y-540821D01*
G54D11*
X-28486Y-528131D02*
X-28486Y-540821D01*
G54D11*
X-23406Y-528131D02*
X-23406Y-540821D01*
G54D11*
X-18326Y-528131D02*
X-18326Y-540821D01*
G54D11*
X-13246Y-528131D02*
X-13246Y-540821D01*
G54D11*
X-8166Y-528131D02*
X-8166Y-540821D01*
G54D11*
X-3086Y-528131D02*
X-3086Y-540821D01*
G54D11*
X1994Y-528131D02*
X1994Y-540821D01*
G54D11*
X7074Y-528131D02*
X7074Y-540821D01*
G54D11*
X12154Y-528131D02*
X12154Y-540821D01*
G54D11*
X17234Y-528131D02*
X17234Y-540821D01*
G54D11*
X22314Y-528131D02*
X22314Y-540821D01*
G54D11*
X27394Y-528131D02*
X27394Y-540821D01*
G54D11*
X32474Y-528131D02*
X32474Y-540821D01*
G54D11*
X37554Y-528131D02*
X37554Y-540821D01*
G54D11*
X42634Y-528131D02*
X42634Y-529521D01*
G54D11*
X42634Y-536641D02*
X42634Y-540821D01*
G54D11*
X-49406Y-491141D02*
X43624Y-491141D01*
X46424Y-493951D01*
G54D11*
X47034Y-499751D02*
X14084Y-499751D01*
X7524Y-493191D01*
G54D11*
X4234Y-491831D02*
X-48936Y-491831D01*
G54D11*
X45644Y-493161D02*
X7504Y-493161D01*
G54D11*
X46484Y-498241D02*
X12584Y-498241D01*
G54D11*
X-48806Y-491141D02*
X-48806Y-491831D01*
G54D11*
X-43726Y-491141D02*
X-43726Y-491831D01*
G54D11*
X-38646Y-491141D02*
X-38646Y-491831D01*
G54D11*
X-33566Y-491141D02*
X-33566Y-491831D01*
G54D11*
X-28486Y-491141D02*
X-28486Y-491831D01*
G54D11*
X-23406Y-491141D02*
X-23406Y-491831D01*
G54D11*
X-18326Y-491141D02*
X-18326Y-491831D01*
G54D11*
X-13246Y-491141D02*
X-13246Y-491831D01*
G54D11*
X-8166Y-491141D02*
X-8166Y-491831D01*
G54D11*
X-3086Y-491141D02*
X-3086Y-491831D01*
G54D11*
X1994Y-491141D02*
X1994Y-491831D01*
G54D11*
X7074Y-491141D02*
X7074Y-492801D01*
G54D11*
X12154Y-491141D02*
X12154Y-497821D01*
G54D11*
X17234Y-491141D02*
X17234Y-499751D01*
G54D11*
X22314Y-491141D02*
X22314Y-499751D01*
G54D11*
X27394Y-491141D02*
X27394Y-499751D01*
G54D11*
X32474Y-491141D02*
X32474Y-499751D01*
G54D11*
X37554Y-491141D02*
X37554Y-499751D01*
G54D11*
X42634Y-491141D02*
X42634Y-499751D01*
G54D11*
X-98806Y-473481D02*
X-98806Y-483481D01*
G54D11*
X-94966Y-487331D02*
X-84966Y-487331D01*
G54D11*
X-84606Y-487321D02*
X-84606Y-491341D01*
X-104886Y-491341D01*
G54D11*
X-113036Y-491341D02*
X-115436Y-491341D01*
G54D11*
X-115436Y-500631D02*
X-81686Y-500631D01*
G54D11*
X-80606Y-509581D02*
X-80606Y-532491D01*
G54D11*
X-79246Y-535771D02*
X-70906Y-544111D01*
G54D11*
X-69996Y-554841D02*
X-71426Y-554841D01*
G54D11*
X-87486Y-561841D02*
X-88246Y-561841D01*
X-90556Y-559531D01*
G54D11*
X-102076Y-565841D02*
X-156316Y-565841D01*
X-156316Y-472841D01*
G54D11*
X-98756Y-472841D02*
X-156316Y-472841D01*
G54D11*
X-98806Y-477921D02*
X-102076Y-477921D01*
G54D11*
X-115846Y-477921D02*
X-156316Y-477921D01*
G54D11*
X-98806Y-483001D02*
X-100126Y-483001D01*
G54D11*
X-117796Y-483001D02*
X-156316Y-483001D01*
G54D11*
X-84606Y-488081D02*
X-101406Y-488081D01*
G54D11*
X-116516Y-488081D02*
X-118976Y-488081D01*
G54D11*
X-126946Y-488081D02*
X-156316Y-488081D01*
G54D11*
X-131346Y-493161D02*
X-156316Y-493161D01*
G54D11*
X-131516Y-498241D02*
X-156316Y-498241D01*
G54D11*
X-82756Y-503321D02*
X-118016Y-503321D01*
G54D11*
X-127906Y-503321D02*
X-156316Y-503321D01*
G54D11*
X-81636Y-508401D02*
X-122516Y-508401D01*
G54D11*
X-136406Y-508401D02*
X-156316Y-508401D01*
G54D11*
X-80606Y-513481D02*
X-120626Y-513481D01*
G54D11*
X-138296Y-513481D02*
X-156316Y-513481D01*
G54D11*
X-80606Y-518561D02*
X-121956Y-518561D01*
G54D11*
X-136966Y-518561D02*
X-156316Y-518561D01*
G54D11*
X-80606Y-523641D02*
X-156316Y-523641D01*
G54D11*
X-80606Y-528721D02*
X-119566Y-528721D01*
G54D11*
X-134956Y-528721D02*
X-156316Y-528721D01*
G54D11*
X-80416Y-533801D02*
X-118446Y-533801D01*
G54D11*
X-136076Y-533801D02*
X-156316Y-533801D01*
G54D11*
X-76136Y-538881D02*
X-120576Y-538881D01*
G54D11*
X-133946Y-538881D02*
X-156316Y-538881D01*
G54D11*
X-71056Y-543961D02*
X-109096Y-543961D01*
G54D11*
X-124426Y-543961D02*
X-156316Y-543961D01*
G54D11*
X-72306Y-549041D02*
X-76496Y-549041D01*
G54D11*
X-83426Y-549041D02*
X-96506Y-549041D01*
G54D11*
X-101816Y-549041D02*
X-107936Y-549041D01*
G54D11*
X-125586Y-549041D02*
X-156316Y-549041D01*
G54D11*
X-70586Y-554121D02*
X-71656Y-554121D01*
G54D11*
X-88266Y-554121D02*
X-90976Y-554121D01*
G54D11*
X-107346Y-554121D02*
X-110026Y-554121D01*
G54D11*
X-123496Y-554121D02*
X-156316Y-554121D01*
G54D11*
X-88576Y-559201D02*
X-90486Y-559201D01*
G54D11*
X-107836Y-559201D02*
X-156316Y-559201D01*
G54D11*
X-104826Y-564281D02*
X-156316Y-564281D01*
G54D11*
X-150271Y-472886D02*
X-150406Y-565841D01*
G54D11*
X-145326Y-474031D02*
X-145326Y-565841D01*
G54D11*
X-140246Y-474031D02*
X-140246Y-565841D01*
G54D11*
X-135166Y-473951D02*
X-135166Y-507121D01*
G54D11*
X-135166Y-520651D02*
X-135166Y-529101D01*
G54D11*
X-135166Y-537071D02*
X-135166Y-565841D01*
G54D11*
X-130086Y-473181D02*
X-130086Y-490731D01*
G54D11*
X-130086Y-501241D02*
X-130086Y-505061D01*
G54D11*
X-130086Y-522711D02*
X-130086Y-524701D01*
G54D11*
X-130086Y-541471D02*
X-130086Y-565841D01*
G54D11*
X-125006Y-472864D02*
X-125006Y-487381D01*
G54D11*
X-125006Y-521531D02*
X-125006Y-524531D01*
G54D11*
X-125006Y-541641D02*
X-125006Y-545161D01*
G54D11*
X-125006Y-551611D02*
X-125006Y-565841D01*
G54D11*
X-119926Y-474134D02*
X-119926Y-487681D01*
G54D11*
X-119926Y-504301D02*
X-119926Y-528141D01*
G54D11*
X-119926Y-538031D02*
X-119926Y-540121D01*
G54D11*
X-119926Y-556651D02*
X-119926Y-565841D01*
G54D11*
X-114846Y-474031D02*
X-114846Y-476871D01*
G54D11*
X-114846Y-490091D02*
X-114846Y-491341D01*
G54D11*
X-114846Y-500631D02*
X-114846Y-539751D01*
G54D11*
X-114846Y-557021D02*
X-114846Y-565841D01*
G54D11*
X-109766Y-500631D02*
X-109766Y-542971D01*
G54D11*
X-109766Y-553801D02*
X-109766Y-565841D01*
G54D11*
X-104686Y-491231D02*
X-104686Y-491341D01*
G54D11*
X-104686Y-500631D02*
X-104686Y-550571D01*
G54D11*
X-104686Y-564401D02*
X-104686Y-565841D01*
G54D11*
X-99606Y-500631D02*
X-99606Y-548651D01*
G54D11*
X-94526Y-487331D02*
X-94526Y-491341D01*
G54D11*
X-94526Y-500631D02*
X-94526Y-549951D01*
G54D11*
X-89446Y-487331D02*
X-89446Y-491341D01*
G54D11*
X-89446Y-500631D02*
X-89446Y-560641D01*
G54D11*
X-84366Y-500631D02*
X-84366Y-549511D01*
G54D11*
X-79286Y-535741D02*
X-79286Y-548361D01*
G54D11*
X-74206Y-540821D02*
X-74206Y-550471D01*
G54D11*
X154394Y-472841D02*
X154394Y-565841D01*
X99884Y-565841D01*
G54D11*
X96004Y-548571D02*
X91624Y-544191D01*
G54D11*
X88334Y-542831D02*
X73044Y-542831D01*
G54D11*
X69334Y-544691D02*
X69294Y-544731D01*
G54D11*
X67514Y-542141D02*
X101244Y-542141D01*
X105934Y-546831D01*
G54D11*
X112514Y-540271D02*
X106454Y-534211D01*
G54D11*
X103174Y-532851D02*
X59584Y-532851D01*
G54D11*
X58074Y-528131D02*
X117834Y-528131D01*
G54D11*
X123334Y-524571D02*
X125504Y-522401D01*
G54D11*
X118924Y-515821D02*
X115914Y-518841D01*
X55874Y-518841D01*
G54D11*
X55944Y-509051D02*
X113624Y-509051D01*
G54D11*
X116914Y-507691D02*
X119504Y-505101D01*
G54D11*
X112924Y-498521D02*
X111704Y-499751D01*
X96884Y-499751D01*
G54D11*
X98324Y-498771D02*
X105004Y-492091D01*
G54D11*
X98424Y-485521D02*
X93114Y-490841D01*
X73964Y-490841D01*
G54D11*
X83034Y-487331D02*
X93034Y-487331D01*
G54D11*
X96884Y-483481D02*
X96884Y-473481D01*
G54D11*
X154394Y-472841D02*
X96834Y-472841D01*
G54D11*
X154394Y-477921D02*
X113924Y-477921D01*
G54D11*
X100154Y-477921D02*
X96884Y-477921D01*
G54D11*
X154394Y-483001D02*
X115874Y-483001D01*
G54D11*
X98204Y-483001D02*
X96884Y-483001D01*
G54D11*
X79194Y-483001D02*
X77874Y-483001D01*
G54D11*
X154394Y-488081D02*
X124314Y-488081D01*
G54D11*
X118764Y-488081D02*
X114594Y-488081D01*
G54D11*
X95864Y-488081D02*
X76594Y-488081D01*
G54D11*
X154394Y-493161D02*
X129744Y-493161D01*
G54D11*
X113334Y-493161D02*
X103934Y-493161D01*
G54D11*
X154394Y-498241D02*
X130214Y-498241D01*
G54D11*
X112864Y-498241D02*
X98854Y-498241D01*
G54D11*
X154394Y-503321D02*
X127154Y-503321D01*
G54D11*
X154394Y-508401D02*
X134564Y-508401D01*
G54D11*
X120514Y-508401D02*
X115984Y-508401D01*
G54D11*
X154394Y-513481D02*
X136384Y-513481D01*
G54D11*
X118694Y-513481D02*
X57374Y-513481D01*
G54D11*
X154394Y-518561D02*
X134984Y-518561D01*
G54D11*
X116184Y-518561D02*
X56044Y-518561D01*
G54D11*
X154394Y-523641D02*
X124254Y-523641D01*
G54D11*
X154394Y-528721D02*
X132984Y-528721D01*
G54D11*
X117694Y-528721D02*
X58434Y-528721D01*
G54D11*
X154394Y-533801D02*
X134164Y-533801D01*
G54D11*
X116514Y-533801D02*
X105994Y-533801D01*
G54D11*
X154394Y-538881D02*
X132104Y-538881D01*
G54D11*
X118574Y-538881D02*
X111134Y-538881D01*
G54D11*
X154394Y-543961D02*
X121894Y-543961D01*
G54D11*
X103064Y-543961D02*
X91374Y-543961D01*
G54D11*
X70004Y-543961D02*
X68904Y-543961D01*
G54D11*
X154394Y-549041D02*
X123384Y-549041D01*
G54D11*
X105694Y-549041D02*
X101504Y-549041D01*
G54D11*
X154394Y-554121D02*
X121664Y-554121D01*
G54D11*
X107414Y-554121D02*
X106344Y-554121D01*
G54D11*
X154394Y-559201D02*
X106654Y-559201D01*
G54D11*
X154394Y-564281D02*
X103314Y-564281D01*
G54D11*
X57874Y-509051D02*
X57874Y-518841D01*
G54D11*
X62954Y-509051D02*
X62954Y-518841D01*
G54D11*
X62954Y-528131D02*
X62954Y-532851D01*
G54D11*
X68034Y-509051D02*
X68034Y-518841D01*
G54D11*
X68034Y-528131D02*
X68034Y-532851D01*
G54D11*
X68034Y-542141D02*
X68034Y-542721D01*
G54D11*
X73114Y-509051D02*
X73114Y-518841D01*
G54D11*
X73114Y-528131D02*
X73114Y-532851D01*
G54D11*
X73114Y-542141D02*
X73114Y-542831D01*
G54D11*
X78194Y-509051D02*
X78194Y-518841D01*
G54D11*
X78194Y-528131D02*
X78194Y-532851D01*
G54D11*
X78194Y-542141D02*
X78194Y-542831D01*
G54D11*
X83274Y-487331D02*
X83274Y-490841D01*
G54D11*
X83274Y-509051D02*
X83274Y-518841D01*
G54D11*
X83274Y-528131D02*
X83274Y-532851D01*
G54D11*
X83274Y-542141D02*
X83274Y-542831D01*
G54D11*
X88354Y-487331D02*
X88354Y-490841D01*
G54D11*
X88354Y-509051D02*
X88354Y-518841D01*
G54D11*
X88354Y-528131D02*
X88354Y-532851D01*
G54D11*
X88354Y-542141D02*
X88354Y-542831D01*
G54D11*
X93434Y-487311D02*
X93434Y-490511D01*
G54D11*
X93434Y-509051D02*
X93434Y-518841D01*
G54D11*
X93434Y-528131D02*
X93434Y-532851D01*
G54D11*
X93434Y-542141D02*
X93434Y-546011D01*
G54D11*
X98514Y-473741D02*
X98514Y-481091D01*
G54D11*
X98514Y-498581D02*
X98514Y-499751D01*
G54D11*
X98514Y-509051D02*
X98514Y-518841D01*
G54D11*
X98514Y-528131D02*
X98514Y-532851D01*
G54D11*
X98514Y-542141D02*
X98514Y-548351D01*
G54D11*
X103594Y-493501D02*
X103594Y-499751D01*
G54D11*
X103594Y-509051D02*
X103594Y-518841D01*
G54D11*
X103594Y-528131D02*
X103594Y-532871D01*
G54D11*
X103594Y-544501D02*
X103594Y-550301D01*
G54D11*
X103594Y-564071D02*
X103594Y-565841D01*
G54D11*
X108674Y-492181D02*
X108674Y-499751D01*
G54D11*
X108674Y-509051D02*
X108674Y-518841D01*
G54D11*
X108674Y-528131D02*
X108674Y-536431D01*
G54D11*
X108674Y-555511D02*
X108674Y-565841D01*
G54D11*
X113754Y-474031D02*
X113754Y-477731D01*
G54D11*
X113754Y-489241D02*
X113754Y-492271D01*
G54D11*
X113754Y-509051D02*
X113754Y-518841D01*
G54D11*
X113754Y-528131D02*
X113754Y-540071D01*
G54D11*
X113754Y-557701D02*
X113754Y-565841D01*
G54D11*
X118834Y-474031D02*
X118834Y-488061D01*
G54D11*
X118834Y-505761D02*
X118834Y-512171D01*
G54D11*
X118834Y-515401D02*
X118834Y-515911D01*
G54D11*
X118834Y-539191D02*
X118834Y-541151D01*
G54D11*
X118834Y-556621D02*
X118834Y-565841D01*
G54D11*
X123914Y-474531D02*
X123914Y-487961D01*
G54D11*
X123914Y-505011D02*
X123914Y-505711D01*
G54D11*
X123914Y-523981D02*
X123914Y-524451D01*
G54D11*
X123914Y-541921D02*
X123914Y-565841D01*
G54D11*
X128994Y-474531D02*
X128994Y-491731D01*
G54D11*
X128994Y-501241D02*
X128994Y-505061D01*
G54D11*
X128994Y-522511D02*
X128994Y-525131D01*
G54D11*
X128994Y-541241D02*
X128994Y-565841D01*
G54D11*
X134074Y-473911D02*
X134074Y-507831D01*
G54D11*
X134074Y-519751D02*
X134074Y-531801D01*
G54D11*
X134074Y-534561D02*
X134074Y-565841D01*
G54D11*
X139154Y-474031D02*
X139154Y-565841D01*
G54D11*
X144234Y-474031D02*
X144234Y-565841D01*
G54D11*
X149314Y-474531D02*
X149314Y-565841D01*
G54D12*
X78834Y-557481D02*
X69834Y-566491D01*
X-90166Y-566491D01*
X-99166Y-557491D01*
G54D12*
X-40966Y-504481D02*
X-4966Y-504481D01*
G54D12*
X-75966Y-504481D02*
X-75966Y-532491D01*
X-63466Y-544981D01*
X-63466Y-548881D01*
G54D12*
X107034Y-483481D02*
X95034Y-495481D01*
X67534Y-495481D01*
X50544Y-478491D01*
X-64966Y-478481D01*
X-70966Y-483471D01*
G54D12*
X43024Y-452481D02*
X43024Y-457471D01*
X69044Y-483481D01*
G54D12*
X121534Y-496491D02*
X113624Y-504401D01*
X12164Y-504401D01*
X4234Y-496481D01*
X-56466Y-496481D01*
G54D12*
X-79956Y-484491D02*
X-79956Y-495481D01*
X-69546Y-495481D01*
X-60556Y-486491D01*
X45544Y-486491D01*
X55034Y-495991D01*
G54D12*
X-13976Y-452481D02*
X-30231Y-468766D01*
X-72241Y-468766D01*
X-79966Y-476491D01*
X-79966Y-495481D01*
X-80466Y-495991D01*
X-122966Y-495991D01*
G54D12*
X-50476Y-513771D02*
X-40756Y-523481D01*
X117834Y-523481D01*
X127534Y-513791D01*
G54D12*
X98034Y-557181D02*
X88334Y-547481D01*
X73044Y-547481D01*
X64034Y-559491D01*
X-77646Y-559491D01*
X-79966Y-557181D01*
G54D12*
X-63456Y-548881D02*
X-63456Y-545471D01*
X51054Y-545471D01*
X59024Y-537501D01*
X103174Y-537501D01*
X114554Y-548881D01*
G54D11*
G75*
G01X51044Y-550131D02*
G03X52481Y-549904I0J4650D01*
G01*
G54D11*
G75*
G01X52521Y-549928D02*
G03X55200Y-554862I8713J1537D01*
G01*
G54D11*
G75*
G01X-56890Y-554812D02*
G03X-54704Y-550122I-6576J5921D01*
G01*
G54D11*
G75*
G01X-4966Y-511391D02*
G03X1069Y-501146I0J6900D01*
G01*
G54D11*
G75*
G01X8874Y-507691D02*
G03X12154Y-509050I3280J3280D01*
G01*
G54D11*
G75*
G01X41111Y-509070D02*
G03X41196Y-518840I7423J-4821D01*
G01*
G54D11*
G75*
G01X-41845Y-515781D02*
G03X-41961Y-511352I-8621J1990D01*
G01*
G54D11*
G75*
G01X-41925Y-511318D02*
G03X-40966Y-511385I959J6827D01*
G01*
G54D11*
G75*
G01X-40966Y-511391D02*
G03X-35838Y-509108I0J6900D01*
G01*
G54D11*
G75*
G01X-10089Y-509104D02*
G03X-4966Y-511385I5123J4613D01*
G01*
G54D11*
G75*
G01X63058Y-499732D02*
G03X63624Y-498133I-8024J3741D01*
G01*
G54D11*
G75*
G01X64244Y-498781D02*
G03X65716Y-499774I3290J3290D01*
G01*
G54D11*
G75*
G01X-65229Y-497722D02*
G03X-48961Y-501180I8763J1231D01*
G01*
G54D11*
G75*
G01X-46995Y-501149D02*
G03X-47860Y-504491I6029J-3342D01*
G01*
G54D11*
G75*
G01X-47866Y-504491D02*
G03X-47814Y-505332I6900J0D01*
G01*
G54D11*
G75*
G01X-47879Y-505329D02*
G03X-57714Y-518866I-2587J-8462D01*
G01*
G54D11*
G75*
G01X-59316Y-513791D02*
G03X-48475Y-522414I8850J0D01*
G01*
G54D11*
G75*
G01X-44056Y-526781D02*
G03X-40766Y-528144I3290J3290D01*
G01*
G54D11*
G75*
G01X43401Y-528145D02*
G03X41889Y-533091I7333J-4946D01*
G01*
G54D11*
G75*
G01X41884Y-533091D02*
G03X46444Y-540832I8850J0D01*
G01*
G54D11*
G75*
G01X-48242Y-540853D02*
G03X-57089Y-540853I-4424J7662D01*
G01*
G54D11*
G75*
G01X-59867Y-540808D02*
G03X-61626Y-540236I-3599J-8083D01*
G01*
G54D11*
G75*
G01X-71353Y-509614D02*
G03X-69072Y-504491I-4613J5123D01*
G01*
G54D11*
G75*
G01X-69066Y-504491D02*
G03X-70604Y-500149I-6900J0D01*
G01*
G54D11*
G75*
G01X-69556Y-500141D02*
G03X-66268Y-498779I0J4650D01*
G01*
G54D11*
G75*
G01X-48963Y-491803D02*
G03X-49400Y-491167I-7503J-4688D01*
G01*
G54D11*
G75*
G01X46413Y-494001D02*
G03X47015Y-499730I8621J-1990D01*
G01*
G54D11*
G75*
G01X7524Y-493191D02*
G03X4234Y-491828I-3290J-3290D01*
G01*
G54D11*
G75*
G01X-98816Y-483491D02*
G03X-94966Y-487341I3850J0D01*
G01*
G54D11*
G75*
G01X-84966Y-487341D02*
G03X-84630Y-487326I0J3850D01*
G01*
G54D11*
G75*
G01X-104949Y-491374D02*
G03X-112982Y-491374I-4017J7883D01*
G01*
G54D11*
G75*
G01X-115461Y-491301D02*
G03X-131816Y-495991I-7505J-4690D01*
G01*
G54D11*
G75*
G01X-81682Y-500635D02*
G03X-82861Y-504491I5716J-3856D01*
G01*
G54D11*
G75*
G01X-82866Y-504491D02*
G03X-80583Y-509619I6900J0D01*
G01*
G54D11*
G75*
G01X-80616Y-532491D02*
G03X-79254Y-535779I4650J0D01*
G01*
G54D11*
G75*
G01X-70890Y-544070D02*
G03X-70044Y-554814I7424J-4821D01*
G01*
G54D11*
G75*
G01X-71422Y-554902D02*
G03X-79966Y-548346I-8544J-2289D01*
G01*
G54D11*
G75*
G01X-79966Y-548341D02*
G03X-87471Y-561881I0J-8850D01*
G01*
G54D11*
G75*
G01X-90545Y-559481D02*
G03X-102047Y-565857I-8621J1990D01*
G01*
G54D11*
G75*
G01X-129466Y-505041D02*
G03X-120616Y-513891I0J-8850D01*
G01*
G54D11*
G75*
G01X-118416Y-533091D02*
G03X-118416Y-533091I-8850J0D01*
G01*
G54D11*
G75*
G01X-107916Y-548391D02*
G03X-107916Y-548391I-8850J0D01*
G01*
G54D11*
G75*
G01X99873Y-565844D02*
G03X96044Y-548572I-1839J8653D01*
G01*
G54D11*
G75*
G01X91609Y-544196D02*
G03X88324Y-542835I-3285J-3285D01*
G01*
G54D11*
G75*
G01X73044Y-542841D02*
G03X69339Y-544688I0J-4640D01*
G01*
G54D11*
G75*
G01X69317Y-544792D02*
G03X67491Y-542134I-8083J-3599D01*
G01*
G54D11*
G75*
G01X105908Y-546900D02*
G03X112543Y-540265I8626J-1991D01*
G01*
G54D11*
G75*
G01X106454Y-534211D02*
G03X103164Y-532848I-3290J-3290D01*
G01*
G54D11*
G75*
G01X59572Y-532782D02*
G03X58065Y-528146I-8838J-309D01*
G01*
G54D11*
G75*
G01X117834Y-528141D02*
G03X118078Y-528135I0J4650D01*
G01*
G54D11*
G75*
G01X118086Y-528116D02*
G03X132493Y-527990I7248J-5075D01*
G01*
G54D11*
G75*
G01X125334Y-542041D02*
G03X123343Y-524568I0J8850D01*
G01*
G54D11*
G75*
G01X125544Y-522412D02*
G03X136382Y-513791I1990J8621D01*
G01*
G54D11*
G75*
G01X127534Y-504941D02*
G03X118911Y-515782I0J-8850D01*
G01*
G54D11*
G75*
G01X55867Y-518837D02*
G03X57379Y-513891I-7333J4946D01*
G01*
G54D11*
G75*
G01X57384Y-513891D02*
G03X55956Y-509071I-8850J0D01*
G01*
G54D11*
G75*
G01X113624Y-509051D02*
G03X116905Y-507692I0J4640D01*
G01*
G54D11*
G75*
G01X119544Y-505112D02*
G03X112913Y-498481I1990J8621D01*
G01*
G54D11*
G75*
G01X96851Y-499771D02*
G03X98322Y-498779I-1817J4280D01*
G01*
G54D11*
G75*
G01X105044Y-492112D02*
G03X98413Y-485481I1990J8621D01*
G01*
G54D11*
G75*
G01X73980Y-490824D02*
G03X77879Y-483491I-4946J7333D01*
G01*
G54D11*
G75*
G01X79184Y-483491D02*
G03X83034Y-487341I3850J0D01*
G01*
G54D11*
G75*
G01X93034Y-487341D02*
G03X96884Y-483491I0J3850D01*
G01*
G36*
X-84962Y-483478D02*
X-94962Y-483478D01*
X-94962Y-473478D01*
X-84962Y-473478D01*
X-84962Y-483478D01*
G37*
G36*
X93038Y-483478D02*
X83038Y-483478D01*
X83038Y-473478D01*
X93038Y-473478D01*
X93038Y-483478D01*
G37*
G36*
X48034Y-457491D02*
X38034Y-457491D01*
X38034Y-447491D01*
X48034Y-447491D01*
X48034Y-457491D01*
G37*
G54D13*
X48034Y-457491D02*
X38034Y-457491D01*
X38034Y-447491D01*
X48034Y-447491D01*
X48034Y-457491D01*
G36*
X97044Y-457491D02*
X87044Y-457491D01*
X87044Y-447491D01*
X97044Y-447491D01*
X97044Y-457491D01*
G37*
G54D13*
X97044Y-457491D02*
X87044Y-457491D01*
X87044Y-447491D01*
X97044Y-447491D01*
X97044Y-457491D01*
G36*
X-110966Y-457491D02*
X-120966Y-457491D01*
X-120966Y-447491D01*
X-110966Y-447491D01*
X-110966Y-457491D01*
G37*
G54D13*
X-110966Y-457491D02*
X-120966Y-457491D01*
X-120966Y-447491D01*
X-110966Y-447491D01*
X-110966Y-457491D01*
G36*
X-34966Y-457491D02*
X-44966Y-457491D01*
X-44966Y-447491D01*
X-34966Y-447491D01*
X-34966Y-457491D01*
G37*
G54D13*
X-34966Y-457491D02*
X-44966Y-457491D01*
X-44966Y-447491D01*
X-34966Y-447491D01*
X-34966Y-457491D01*
G36*
X-60966Y-457491D02*
X-70966Y-457491D01*
X-70966Y-447491D01*
X-60966Y-447491D01*
X-60966Y-457491D01*
G37*
G54D13*
X-60966Y-457491D02*
X-70966Y-457491D01*
X-70966Y-447491D01*
X-60966Y-447491D01*
X-60966Y-457491D01*
G36*
X145034Y-457491D02*
X135034Y-457491D01*
X135034Y-447491D01*
X145034Y-447491D01*
X145034Y-457491D01*
G37*
G54D13*
X145034Y-457491D02*
X135034Y-457491D01*
X135034Y-447491D01*
X145034Y-447491D01*
X145034Y-457491D01*
G36*
X-135966Y-457491D02*
X-145966Y-457491D01*
X-145966Y-447491D01*
X-135966Y-447491D01*
X-135966Y-457491D01*
G37*
G54D13*
X-135966Y-457491D02*
X-145966Y-457491D01*
X-145966Y-447491D01*
X-135966Y-447491D01*
X-135966Y-457491D01*
G36*
X120034Y-457491D02*
X110034Y-457491D01*
X110034Y-447491D01*
X120034Y-447491D01*
X120034Y-457491D01*
G37*
G54D13*
X120034Y-457491D02*
X110034Y-457491D01*
X110034Y-447491D01*
X120034Y-447491D01*
X120034Y-457491D01*
G36*
X23034Y-457491D02*
X13034Y-457491D01*
X13034Y-447491D01*
X23034Y-447491D01*
X23034Y-457491D01*
G37*
G54D13*
X23034Y-457491D02*
X13034Y-457491D01*
X13034Y-447491D01*
X23034Y-447491D01*
X23034Y-457491D01*
G36*
X-8966Y-457491D02*
X-18966Y-457491D01*
X-18966Y-447491D01*
X-8966Y-447491D01*
X-8966Y-457491D01*
G37*
G54D13*
X-8966Y-457491D02*
X-18966Y-457491D01*
X-18966Y-447491D01*
X-8966Y-447491D01*
X-8966Y-457491D01*
G36*
X-85956Y-457481D02*
X-95956Y-457481D01*
X-95956Y-447481D01*
X-85956Y-447481D01*
X-85956Y-457481D01*
G37*
G54D13*
X-85956Y-457481D02*
X-95956Y-457481D01*
X-95956Y-447481D01*
X-85956Y-447481D01*
X-85956Y-457481D01*
G36*
X73044Y-457481D02*
X63044Y-457481D01*
X63044Y-447481D01*
X73044Y-447481D01*
X73044Y-457481D01*
G37*
G54D13*
X73044Y-457481D02*
X63044Y-457481D01*
X63044Y-447481D01*
X73044Y-447481D01*
X73044Y-457481D01*
X-91832Y-33998D02*
G54D14*
D03*
X111168Y-42998D02*
G54D14*
D03*
X204210Y-197036D02*
G54D15*
D03*
X-205320Y-230496D02*
G54D16*
D03*
X-205320Y-275506D02*
G54D16*
D03*
X-180330Y-217996D02*
G54D17*
D03*
X-180330Y-288006D02*
G54D17*
D03*
G54D11*
X170180Y-101236D02*
X169750Y-101236D01*
G54D18*
X229170Y-282006D02*
X229170Y-306966D01*
X221780Y-314356D01*
X220110Y-316036D01*
X204210Y-316036D01*
X204210Y-316056D01*
X206670Y-318526D01*
X206670Y-334996D01*
G54D19*
X204210Y-316056D02*
X200150Y-312006D01*
X126170Y-312006D01*
X126170Y-349996D01*
X134170Y-357996D01*
X134170Y-366996D01*
X126170Y-374996D01*
X73170Y-374996D01*
X65170Y-366996D01*
X65170Y-357996D01*
X16170Y-308996D01*
X-109060Y-308996D01*
X-109360Y-309296D01*
G54D19*
X73170Y-317986D02*
X5180Y-249996D01*
X4170Y-249996D01*
G54D18*
X-50830Y-47996D02*
X-30830Y-27996D01*
X50180Y-27996D01*
X96170Y-27996D01*
X111170Y-42996D01*
X117170Y-42996D01*
X132170Y-57996D01*
X139320Y-58006D01*
X144930Y-52396D01*
G54D19*
X-76820Y-272006D02*
X-64830Y-283996D01*
X6170Y-283996D01*
X74170Y-351996D01*
X74170Y-361996D01*
X80170Y-367996D01*
X115170Y-367996D01*
X122170Y-360996D01*
G54D19*
X87170Y-360996D02*
X87170Y-350996D01*
X11180Y-274996D01*
X-56820Y-274996D01*
X-61830Y-269996D01*
G54D19*
X19170Y-362236D02*
X-76590Y-362236D01*
X-116440Y-322386D01*
X-116440Y-291616D01*
X-77830Y-252996D01*
X-53830Y-252996D01*
X-40830Y-266006D01*
G54D19*
X-68830Y-42006D02*
X-71830Y-42006D01*
X-82830Y-52996D01*
X-131830Y-52996D01*
X-181830Y-102996D01*
G54D19*
X-44830Y-319996D02*
X-23820Y-319996D01*
X-23820Y-319996D01*
G54D19*
X-94830Y-394996D02*
X-95560Y-394266D01*
X-95560Y-362636D01*
X-95560Y-362636D01*
G54D19*
X59170Y-175006D02*
X134930Y-175006D01*
X140680Y-169246D01*
G54D19*
X-50830Y-27996D02*
X-85840Y-27996D01*
X-91830Y-33986D01*
G54D20*
X203950Y-105086D02*
X148090Y-49226D01*
G54D19*
X162470Y-109096D02*
X184670Y-86876D01*
G54D18*
X183170Y-281996D02*
X183170Y-273006D01*
X204230Y-251946D01*
X204230Y-247856D01*
G36*
X161810Y-112936D02*
X172420Y-102326D01*
X169240Y-99146D01*
X158630Y-109756D01*
X161810Y-112936D01*
G37*
G54D13*
X161810Y-112936D02*
X172420Y-102326D01*
X169240Y-99146D01*
X158630Y-109756D01*
X161810Y-112936D01*
G36*
X157210Y-108336D02*
X167820Y-97736D01*
X164640Y-94546D01*
X154030Y-105156D01*
X157210Y-108336D01*
G37*
G54D13*
X157210Y-108336D02*
X167820Y-97736D01*
X164640Y-94546D01*
X154030Y-105156D01*
X157210Y-108336D01*
G36*
X152620Y-103736D02*
X163220Y-93136D01*
X160040Y-89956D01*
X149430Y-100556D01*
X152620Y-103736D01*
G37*
G54D13*
X152620Y-103736D02*
X163220Y-93136D01*
X160040Y-89956D01*
X149430Y-100556D01*
X152620Y-103736D01*
G36*
X148020Y-99146D02*
X158630Y-88536D01*
X155440Y-85356D01*
X144840Y-95956D01*
X148020Y-99146D01*
G37*
G54D13*
X148020Y-99146D02*
X158630Y-88536D01*
X155440Y-85356D01*
X144840Y-95956D01*
X148020Y-99146D01*
G36*
X143420Y-94546D02*
X154030Y-83936D01*
X150850Y-80756D01*
X140240Y-91366D01*
X143420Y-94546D01*
G37*
G54D13*
X143420Y-94546D02*
X154030Y-83936D01*
X150850Y-80756D01*
X140240Y-91366D01*
X143420Y-94546D01*
G36*
X189450Y-104726D02*
X204300Y-119576D01*
X218440Y-105436D01*
X203600Y-90586D01*
X189450Y-104726D01*
G37*
G54D13*
X189450Y-104726D02*
X204300Y-119576D01*
X218440Y-105436D01*
X203600Y-90586D01*
X189450Y-104726D01*
G36*
X133600Y-48876D02*
X148450Y-63726D01*
X162590Y-49576D01*
X147740Y-34726D01*
X133600Y-48876D01*
G37*
G54D13*
X133600Y-48876D02*
X148450Y-63726D01*
X162590Y-49576D01*
X147740Y-34726D01*
X133600Y-48876D01*
G36*
X152690Y-67966D02*
X166830Y-82106D01*
X180970Y-67966D01*
X166830Y-53826D01*
X152690Y-67966D01*
G37*
G54D13*
X152690Y-67966D02*
X166830Y-82106D01*
X180970Y-67966D01*
X166830Y-53826D01*
X152690Y-67966D01*
G36*
X171070Y-86346D02*
X185210Y-100486D01*
X199350Y-86346D01*
X185210Y-72206D01*
X171070Y-86346D01*
G37*
G54D13*
X171070Y-86346D02*
X185210Y-100486D01*
X199350Y-86346D01*
X185210Y-72206D01*
X171070Y-86346D01*
G36*
X173170Y-291996D02*
X193170Y-291996D01*
X193170Y-271996D01*
X173170Y-271996D01*
X173170Y-291996D01*
G37*
G54D13*
X173170Y-291996D02*
X193170Y-291996D01*
X193170Y-271996D01*
X173170Y-271996D01*
X173170Y-291996D01*
G36*
X219170Y-291996D02*
X239170Y-291996D01*
X239170Y-271996D01*
X219170Y-271996D01*
X219170Y-291996D01*
G37*
G54D13*
X219170Y-291996D02*
X239170Y-291996D01*
X239170Y-271996D01*
X219170Y-271996D01*
X219170Y-291996D01*
X-186830Y-128296D02*
G54D21*
D03*
X-186830Y-153696D02*
G54D21*
D03*
X-184130Y-314996D02*
G54D21*
D03*
X-209530Y-314996D02*
G54D21*
D03*
X-184130Y-190996D02*
G54D21*
D03*
X-209530Y-190996D02*
G54D21*
D03*
X204230Y-247846D02*
G54D22*
D03*
X50180Y-28000D02*
G54D23*
D03*
G54D12*
X88034Y-478481D02*
X88034Y-471077D01*
X86506Y-469548D01*
X70630Y-469548D01*
X69043Y-467960D01*
X69043Y-452086D01*
G36*
X-145466Y-443491D02*
X-136466Y-443491D01*
X-136466Y-461491D01*
X-145466Y-461491D01*
X-145466Y-443491D01*
G37*
X-140966Y-452491D02*
G54D24*
D03*
X-140966Y-452491D02*
G54D24*
D03*
X-140966Y-452491D02*
G54D24*
D03*
G36*
X-120456Y-443481D02*
X-111456Y-443481D01*
X-111456Y-461481D01*
X-120456Y-461481D01*
X-120456Y-443481D01*
G37*
X-115956Y-452481D02*
G54D24*
D03*
X-115956Y-452481D02*
G54D24*
D03*
X-115956Y-452481D02*
G54D24*
D03*
G36*
X-95456Y-443481D02*
X-86456Y-443481D01*
X-86456Y-461481D01*
X-95456Y-461481D01*
X-95456Y-443481D01*
G37*
X-90956Y-452481D02*
G54D24*
D03*
X-90956Y-452481D02*
G54D24*
D03*
X-90956Y-452481D02*
G54D24*
D03*
G36*
X-70466Y-443491D02*
X-61466Y-443491D01*
X-61466Y-461491D01*
X-70466Y-461491D01*
X-70466Y-443491D01*
G37*
X-65966Y-452491D02*
G54D24*
D03*
X-65966Y-452491D02*
G54D24*
D03*
X-65966Y-452491D02*
G54D24*
D03*
G36*
X-44456Y-443481D02*
X-35456Y-443481D01*
X-35456Y-461481D01*
X-44456Y-461481D01*
X-44456Y-443481D01*
G37*
X-39956Y-452481D02*
G54D24*
D03*
X-39956Y-452481D02*
G54D24*
D03*
X-39956Y-452481D02*
G54D24*
D03*
G36*
X-18476Y-443481D02*
X-9476Y-443481D01*
X-9476Y-461481D01*
X-18476Y-461481D01*
X-18476Y-443481D01*
G37*
X-13976Y-452481D02*
G54D24*
D03*
X-13976Y-452481D02*
G54D24*
D03*
X-13976Y-452481D02*
G54D24*
D03*
G36*
X13534Y-443481D02*
X22534Y-443481D01*
X22534Y-461481D01*
X13534Y-461481D01*
X13534Y-443481D01*
G37*
X18034Y-452481D02*
G54D24*
D03*
X18034Y-452481D02*
G54D24*
D03*
X18034Y-452481D02*
G54D24*
D03*
G36*
X38524Y-443481D02*
X47524Y-443481D01*
X47524Y-461481D01*
X38524Y-461481D01*
X38524Y-443481D01*
G37*
X43024Y-452481D02*
G54D24*
D03*
X43024Y-452481D02*
G54D24*
D03*
X43024Y-452481D02*
G54D24*
D03*
G36*
X87544Y-443481D02*
X96544Y-443481D01*
X96544Y-461481D01*
X87544Y-461481D01*
X87544Y-443481D01*
G37*
X92044Y-452481D02*
G54D24*
D03*
X92044Y-452481D02*
G54D24*
D03*
X92044Y-452481D02*
G54D24*
D03*
G36*
X63514Y-443481D02*
X72514Y-443481D01*
X72514Y-461481D01*
X63514Y-461481D01*
X63514Y-443481D01*
G37*
X68014Y-452481D02*
G54D24*
D03*
X68014Y-452481D02*
G54D24*
D03*
X68014Y-452481D02*
G54D24*
D03*
G36*
X110534Y-443481D02*
X119534Y-443481D01*
X119534Y-461481D01*
X110534Y-461481D01*
X110534Y-443481D01*
G37*
X115034Y-452481D02*
G54D24*
D03*
X115034Y-452481D02*
G54D24*
D03*
X115034Y-452481D02*
G54D24*
D03*
G36*
X135524Y-443481D02*
X144524Y-443481D01*
X144524Y-461481D01*
X135524Y-461481D01*
X135524Y-443481D01*
G37*
X140024Y-452481D02*
G54D24*
D03*
X140024Y-452481D02*
G54D24*
D03*
X140024Y-452481D02*
G54D24*
D03*
X4034Y-468666D02*
G54D25*
D03*
X-4966Y-504491D02*
G54D25*
D03*
X-40966Y-504491D02*
G54D25*
D03*
X-75966Y-504481D02*
G54D25*
D03*
X-94830Y-395006D02*
G54D25*
D03*
X-95560Y-362646D02*
G54D25*
D03*
X19170Y-362236D02*
G54D25*
D03*
X-23830Y-320006D02*
G54D25*
D03*
X-44830Y-320006D02*
G54D25*
D03*
X-76830Y-272006D02*
G54D25*
D03*
X-61830Y-270006D02*
G54D25*
D03*
X-40830Y-266006D02*
G54D25*
D03*
X4170Y-250006D02*
G54D25*
D03*
X-24018Y-184615D02*
G54D25*
D03*
X-53580Y-191615D02*
G54D25*
D03*
X59170Y-175006D02*
G54D25*
D03*
X140680Y-169246D02*
G54D25*
D03*
X176360Y-301656D02*
G54D25*
D03*
X126170Y-312006D02*
G54D25*
D03*
X73160Y-317996D02*
G54D25*
D03*
X87160Y-360986D02*
G54D25*
D03*
X122160Y-360986D02*
G54D25*
D03*
X76200Y-147638D02*
G54D25*
D03*
X-181830Y-102996D02*
G54D25*
D03*
X12700Y-104775D02*
G54D25*
D03*
X-130557Y-186996D02*
G54D25*
D03*
X-109060Y-308996D02*
G54D25*
D03*
X-68830Y-42006D02*
G54D25*
D03*
X69034Y-483491D02*
G54D10*
D03*
X107034Y-483481D02*
G54D10*
D03*
X121534Y-496491D02*
G54D10*
D03*
X127534Y-513791D02*
G54D10*
D03*
X125334Y-533181D02*
G54D10*
D03*
X114534Y-548891D02*
G54D10*
D03*
X98044Y-557181D02*
G54D10*
D03*
X78834Y-557481D02*
G54D10*
D03*
X61244Y-548391D02*
G54D10*
D03*
X50734Y-533081D02*
G54D10*
D03*
X48544Y-513881D02*
G54D10*
D03*
X-50466Y-513791D02*
G54D10*
D03*
X-56466Y-496491D02*
G54D10*
D03*
X-70966Y-483481D02*
G54D10*
D03*
X-108966Y-483481D02*
G54D10*
D03*
X-122966Y-495991D02*
G54D10*
D03*
X-129466Y-513881D02*
G54D10*
D03*
X-127266Y-533081D02*
G54D10*
D03*
X-116766Y-548391D02*
G54D10*
D03*
X-99166Y-557491D02*
G54D10*
D03*
X-79966Y-557181D02*
G54D10*
D03*
X-63466Y-548881D02*
G54D10*
D03*
X-52666Y-533181D02*
G54D10*
D03*
X-61912Y-217488D02*
G54D25*
D03*
X44170Y-428996D02*
G54D25*
D03*
X87033Y-428996D02*
G54D25*
D03*
G54D19*
X44170Y-428996D02*
X87033Y-428996D01*
X-18030Y-43594D02*
G54D25*
D03*
G54D19*
X-188830Y-126996D02*
X-188130Y-126996D01*
X-186830Y-128296D01*
X-186220Y-128296D01*
X-124830Y-66906D01*
X-36830Y-66906D01*
X-18030Y-48106D01*
X-18030Y-43594D01*
X50180Y-47996D02*
G54D23*
D03*
X-50830Y-47996D02*
G54D23*
D03*
X-50830Y-27996D02*
G54D23*
D03*
X181680Y-334996D02*
G54D26*
D03*
X206580Y-334996D02*
G54D26*
D03*
G54D18*
X76200Y-147638D02*
X193675Y-147638D01*
X203200Y-157162D01*
G54D18*
X203200Y-157162D02*
X203200Y-196026D01*
X204210Y-197036D01*
G54D18*
X76200Y-147638D02*
X31750Y-147638D01*
G54D18*
X12700Y-104775D02*
X12700Y-139700D01*
X20638Y-147638D01*
X31750Y-147638D01*
G54D27*
X-53580Y-191615D02*
X-125938Y-191615D01*
X-130557Y-186996D01*
G54D27*
X-205320Y-275506D02*
X-205320Y-262470D01*
X-203200Y-260350D01*
X-100012Y-260350D01*
G54D27*
X-61912Y-217488D02*
X-84138Y-217488D01*
X-90488Y-223838D01*
X-90488Y-250825D01*
X-100012Y-260350D01*
G54D27*
X-61912Y-217488D02*
X-49213Y-217488D01*
X-41275Y-209550D01*
X-41275Y-155575D01*
X-33338Y-147638D01*
X4762Y-147638D01*
X12700Y-139700D01*
G54D27*
X-24018Y-184615D02*
X-24018Y-206170D01*
X63500Y-293688D01*
G54D27*
X176360Y-301656D02*
X71469Y-301656D01*
X63500Y-293688D01*
G54D27*
X50180Y-47996D02*
X94034Y-47996D01*
X134938Y-88900D01*
X146050Y-88900D01*
G54D12*
X43024Y-452481D02*
X43024Y-469738D01*
X41275Y-471488D01*
X6856Y-471488D01*
X4034Y-468666D01*
X-128656Y-452481D02*
G54D28*
D03*
X-103256Y-452481D02*
G54D28*
D03*
X-79443Y-452481D02*
G54D28*
D03*
X-52456Y-452481D02*
G54D28*
D03*
X-27056Y-452481D02*
G54D28*
D03*
X128519Y-452481D02*
G54D28*
D03*
X103119Y-452481D02*
G54D28*
D03*
X79307Y-452481D02*
G54D28*
D03*
X55494Y-452481D02*
G54D28*
D03*
X30094Y-452481D02*
G54D28*
D03*
G36*
X76665Y-118541D02*
X61425Y-118541D01*
X61425Y-103301D01*
X76665Y-103301D01*
X76665Y-118541D01*
G37*
G54D13*
X76665Y-118541D02*
X61425Y-118541D01*
X61425Y-103301D01*
X76665Y-103301D01*
X76665Y-118541D01*
X53975Y-109538D02*
G54D25*
D03*
G54D19*
X53975Y-109538D02*
X66675Y-109538D01*
G36*
X76665Y-99491D02*
X61425Y-99491D01*
X61425Y-84251D01*
X76665Y-84251D01*
X76665Y-99491D01*
G37*
G54D13*
X76665Y-99491D02*
X61425Y-99491D01*
X61425Y-84251D01*
X76665Y-84251D01*
X76665Y-99491D01*
X68262Y-80962D02*
G54D25*
D03*
G54D19*
X68262Y-80962D02*
X68262Y-90488D01*
M02*
